<svg width="12" height="10" viewBox="0 0 12 10" fill="none" xmlns="http://www.w3.org/2000/svg">
<path d="M12 3.04007V8.35704C12 8.65168 11.8951 8.90391 11.6853 9.11373C11.4754 9.32356 11.2232 9.42847 10.9286 9.42847H1.07143C0.776786 9.42847 0.524554 9.32356 0.314732 9.11373C0.104911 8.90391 0 8.65168 0 8.35704V3.04007C0.196429 3.25882 0.421875 3.45302 0.676339 3.62266C2.29241 4.72088 3.40179 5.49097 4.00446 5.93293C4.25893 6.12043 4.4654 6.26664 4.62388 6.37155C4.78237 6.47646 4.9933 6.5836 5.2567 6.69298C5.52009 6.80235 5.76562 6.85704 5.9933 6.85704H6H6.0067C6.23438 6.85704 6.47991 6.80235 6.7433 6.69298C7.0067 6.5836 7.21763 6.47646 7.37612 6.37155C7.5346 6.26664 7.74107 6.12043 7.99554 5.93293C8.75446 5.38382 9.86607 4.61373 11.3304 3.62266C11.5848 3.44856 11.808 3.25436 12 3.04007ZM12 1.07132C12 1.424 11.8906 1.76106 11.6719 2.08248C11.4531 2.40391 11.1808 2.67847 10.8549 2.90615C9.17634 4.07132 8.1317 4.79677 7.72098 5.08248C7.67634 5.11373 7.58147 5.18182 7.43638 5.28673C7.29129 5.39164 7.17076 5.47646 7.07478 5.54119C6.97879 5.60592 6.86272 5.67847 6.72656 5.75882C6.5904 5.83918 6.46205 5.89945 6.34152 5.93963C6.22098 5.97981 6.10938 5.9999 6.0067 5.9999H6H5.9933C5.89062 5.9999 5.77902 5.97981 5.65848 5.93963C5.53795 5.89945 5.4096 5.83918 5.27344 5.75882C5.13728 5.67847 5.02121 5.60592 4.92522 5.54119C4.82924 5.47646 4.70871 5.39164 4.56362 5.28673C4.41853 5.18182 4.32366 5.11373 4.27902 5.08248C3.87277 4.79677 3.28795 4.3894 2.52455 3.86039C1.76116 3.33137 1.30357 3.01329 1.15179 2.90615C0.875 2.71865 0.613839 2.46083 0.368304 2.13271C0.122768 1.80458 0 1.4999 0 1.21865C0 0.870431 0.0926339 0.580253 0.277902 0.348109C0.46317 0.115967 0.727679 -0.000104904 1.07143 -0.000104904H10.9286C11.2188 -0.000104904 11.4699 0.104806 11.6819 0.314628C11.894 0.524448 12 0.776681 12 1.07132Z" fill="#8897A2"/>
</svg>
