<svg width="24" height="24" viewBox="0 0 24 24" fill="none" xmlns="http://www.w3.org/2000/svg">
<path d="M3 0C2.20435 0 1.44129 0.31607 0.878679 0.878679C0.31607 1.44129 0 2.20435 0 3L0 21C0 21.7956 0.31607 22.5587 0.878679 23.1213C1.44129 23.6839 2.20435 24 3 24H21C21.7956 24 22.5587 23.6839 23.1213 23.1213C23.6839 22.5587 24 21.7956 24 21V3C24 2.20435 23.6839 1.44129 23.1213 0.878679C22.5587 0.31607 21.7956 0 21 0L3 0ZM12.339 8.0775C11.463 8.0775 10.9335 8.3235 10.9335 8.967C10.9335 9.669 11.844 9.97799 12.9735 10.362C14.8155 10.9845 17.2395 11.8065 17.25 14.8515C17.25 17.802 14.886 19.5 11.445 19.5C9.89252 19.495 8.35713 19.1756 6.9315 18.561V14.637C8.3205 15.396 10.074 15.957 11.4465 15.957C12.372 15.957 13.0335 15.7095 13.0335 14.9505C13.0335 14.1735 12.0465 13.818 10.854 13.389C9.03899 12.735 6.75 11.91 6.75 9.165C6.75 6.2475 8.98199 4.5 12.339 4.5C13.7419 4.48707 15.1342 4.74425 16.44 5.2575V9.13199C15.183 8.457 13.596 8.0775 12.339 8.0775Z" fill="black"/>
</svg>
