<svg width="211" height="49" viewBox="0 0 211 49" fill="none" xmlns="http://www.w3.org/2000/svg">
<rect x="1.58065" y="1.58065" width="207.065" height="45.8387" rx="14.2258" stroke="#ED1C24" stroke-width="3.16129"/>
<path d="M52.1629 17.3915C52.1646 15.0276 51.283 12.7483 49.691 11.0006C48.0989 9.25286 45.9112 8.16271 43.5568 7.94392C41.2025 7.72512 38.8513 8.39346 36.9643 9.81788C35.0772 11.2423 33.7905 13.3201 33.3564 15.6438C32.457 18.5514 31.6445 20.1348 31.1988 20.8727L27.2203 24.8501C27.0786 24.992 26.9752 25.1675 26.9197 25.3601C26.8643 25.5528 26.8587 25.7564 26.9033 25.9519C26.948 26.1473 27.0416 26.3282 27.1753 26.4777C27.3089 26.6272 27.4783 26.7403 27.6676 26.8065L24.4415 30.0333C23.6099 30.0456 22.8033 30.3199 22.1367 30.8172C21.4701 31.3145 20.9774 32.0094 20.7289 32.803C20.4804 33.5965 20.4886 34.4482 20.7525 35.2368C21.0164 36.0254 21.5225 36.7106 22.1986 37.1949C22.4547 37.3782 22.687 37.6089 22.8704 37.8665C23.3552 38.5429 24.0413 39.0491 24.8308 39.3127C25.6204 39.5763 26.473 39.5839 27.2671 39.3344C28.0612 39.085 28.7563 38.5912 29.2531 37.9235C29.7499 37.2558 30.0232 36.4483 30.0339 35.6162L33.2584 32.3926C33.3236 32.5829 33.4363 32.7535 33.5857 32.8883C33.7351 33.0231 33.9164 33.1176 34.1125 33.163C34.3086 33.2083 34.513 33.2031 34.7065 33.1476C34.9 33.0922 35.0761 32.9884 35.2184 32.8461L39.2079 28.8576C39.9556 28.4104 41.5441 27.6013 44.4478 26.7085C46.6175 26.2961 48.5753 25.1398 49.9837 23.439C51.3921 21.7382 52.1628 19.5995 52.1629 17.3915ZM30.9554 26.8728H33.1952V29.1041L28.2699 34.0265C28.0726 34.2304 27.9175 34.4711 27.8133 34.7349C27.7092 34.9987 27.6581 35.2805 27.6629 35.5641C27.6628 35.8987 27.5565 36.2246 27.3593 36.4949C27.162 36.7652 26.884 36.966 26.5654 37.0683C26.2467 37.1705 25.9038 37.169 25.586 37.064C25.2683 36.959 24.9921 36.7558 24.7972 36.4838C24.4605 36.0156 24.05 35.6052 23.5817 35.2686C23.3096 35.0737 23.1064 34.7976 23.0013 34.4799C22.8962 34.1623 22.8947 33.8194 22.997 33.5008C23.0993 33.1823 23.3001 32.9044 23.5705 32.7072C23.8409 32.51 24.1669 32.4037 24.5016 32.4036C24.9742 32.4036 25.5654 32.2614 26.0269 31.8L30.9554 26.8728Z" fill="#ED1C24"/>
<path d="M59.3091 22.0368C59.3091 20.7344 59.5999 19.571 60.1816 18.5468C60.7759 17.5099 61.5789 16.7069 62.5905 16.1379C63.6148 15.5562 64.7592 15.2653 66.0237 15.2653C67.5032 15.2653 68.7993 15.6447 69.9121 16.4034C71.0248 17.1621 71.8025 18.2117 72.2451 19.5521H69.1913C68.8878 18.9198 68.4579 18.4456 67.9015 18.1295C67.3577 17.8133 66.7255 17.6553 66.0047 17.6553C65.2334 17.6553 64.5442 17.8386 63.9372 18.2053C63.3429 18.5594 62.875 19.0652 62.5336 19.7228C62.2048 20.3803 62.0405 21.1517 62.0405 22.0368C62.0405 22.9093 62.2048 23.6807 62.5336 24.3509C62.875 25.0084 63.3429 25.5206 63.9372 25.8873C64.5442 26.2413 65.2334 26.4184 66.0047 26.4184C66.7255 26.4184 67.3577 26.2603 67.9015 25.9442C68.4579 25.6154 68.8878 25.1349 69.1913 24.5026H72.2451C71.8025 25.8557 71.0248 26.9115 69.9121 27.6702C68.8119 28.4163 67.5158 28.7893 66.0237 28.7893C64.7592 28.7893 63.6148 28.5048 62.5905 27.9358C61.5789 27.3541 60.7759 26.5512 60.1816 25.5269C59.5999 24.5026 59.3091 23.3393 59.3091 22.0368ZM80.4312 18.0157C81.2278 18.0157 81.9359 18.1927 82.5555 18.5468C83.1752 18.8882 83.6557 19.4003 83.9971 20.0832C84.3512 20.7533 84.5282 21.5626 84.5282 22.511V28.6755H81.8727V22.8714C81.8727 22.0368 81.6641 21.3982 81.2468 20.9557C80.8295 20.5004 80.2605 20.2728 79.5397 20.2728C78.8063 20.2728 78.2246 20.5004 77.7946 20.9557C77.3774 21.3982 77.1687 22.0368 77.1687 22.8714V28.6755H74.5132V14.6394H77.1687V19.4762C77.5101 19.021 77.9654 18.6669 78.5344 18.414C79.1034 18.1484 79.7357 18.0157 80.4312 18.0157ZM88.4001 16.9155C87.9323 16.9155 87.5403 16.7701 87.2241 16.4793C86.9206 16.1758 86.7689 15.8028 86.7689 15.3602C86.7689 14.9176 86.9206 14.5509 87.2241 14.2601C87.5403 13.9566 87.9323 13.8048 88.4001 13.8048C88.868 13.8048 89.2537 13.9566 89.5572 14.2601C89.8733 14.5509 90.0314 14.9176 90.0314 15.3602C90.0314 15.8028 89.8733 16.1758 89.5572 16.4793C89.2537 16.7701 88.868 16.9155 88.4001 16.9155ZM89.7089 18.1674V28.6755H87.0534V18.1674H89.7089ZM91.6497 23.4215C91.6497 22.334 91.871 21.3856 92.3136 20.5763C92.7561 19.7544 93.3694 19.1221 94.1534 18.6795C94.9374 18.2243 95.8352 17.9967 96.8469 17.9967C98.1493 17.9967 99.2241 18.3255 100.071 18.983C100.931 19.6279 101.507 20.5384 101.797 21.7144H98.9333C98.7816 21.2591 98.5223 20.9051 98.1556 20.6522C97.8016 20.3866 97.359 20.2539 96.8279 20.2539C96.0692 20.2539 95.4685 20.5321 95.026 21.0884C94.5834 21.6322 94.3621 22.4099 94.3621 23.4215C94.3621 24.4204 94.5834 25.1981 95.026 25.7545C95.4685 26.2982 96.0692 26.5701 96.8279 26.5701C97.9027 26.5701 98.6045 26.0896 98.9333 25.1286H101.797C101.507 26.2666 100.931 27.1708 100.071 27.841C99.2115 28.5112 98.1367 28.8462 96.8469 28.8462C95.8352 28.8462 94.9374 28.625 94.1534 28.1824C93.3694 27.7272 92.7561 27.0949 92.3136 26.2856C91.871 25.4637 91.6497 24.509 91.6497 23.4215ZM109.964 28.6755L106.398 24.1991V28.6755H103.743V14.6394H106.398V22.6248L109.926 18.1674H113.378L108.75 23.4404L113.416 28.6755H109.964ZM124.588 23.1939C124.588 23.5732 124.563 23.9146 124.512 24.2181H116.83C116.893 24.9768 117.159 25.5711 117.627 26.0011C118.095 26.431 118.67 26.646 119.353 26.646C120.339 26.646 121.041 26.2224 121.458 25.3751H124.323C124.019 26.3868 123.437 27.2213 122.577 27.8789C121.718 28.5238 120.662 28.8462 119.41 28.8462C118.398 28.8462 117.488 28.625 116.679 28.1824C115.882 27.7272 115.256 27.0886 114.801 26.2666C114.358 25.4447 114.137 24.4963 114.137 23.4215C114.137 22.334 114.358 21.3793 114.801 20.5573C115.243 19.7354 115.863 19.1032 116.66 18.6606C117.456 18.218 118.373 17.9967 119.41 17.9967C120.409 17.9967 121.3 18.2117 122.084 18.6416C122.881 19.0715 123.494 19.6848 123.924 20.4815C124.367 21.2655 124.588 22.1696 124.588 23.1939ZM121.838 22.4351C121.825 21.7523 121.579 21.2086 121.098 20.8039C120.617 20.3866 120.029 20.178 119.334 20.178C118.676 20.178 118.12 20.3803 117.665 20.785C117.222 21.177 116.95 21.727 116.849 22.4351H121.838ZM132.349 18.0157C133.601 18.0157 134.613 18.414 135.384 19.2106C136.156 19.9946 136.541 21.0948 136.541 22.511V28.6755H133.886V22.8714C133.886 22.0368 133.677 21.3982 133.26 20.9557C132.843 20.5004 132.274 20.2728 131.553 20.2728C130.819 20.2728 130.238 20.5004 129.808 20.9557C129.39 21.3982 129.182 22.0368 129.182 22.8714V28.6755H126.526V18.1674H129.182V19.4762C129.536 19.021 129.985 18.6669 130.529 18.414C131.085 18.1484 131.692 18.0157 132.349 18.0157ZM151.761 15.4361V17.5794H146.242V20.9746H150.471V23.0801H146.242V28.6755H143.586V15.4361H151.761ZM156.3 19.7986C156.641 19.2422 157.084 18.806 157.627 18.4899C158.184 18.1737 158.816 18.0157 159.524 18.0157V20.8039H158.822C157.988 20.8039 157.356 20.9999 156.926 21.3919C156.508 21.7839 156.3 22.4668 156.3 23.4404V28.6755H153.644V18.1674H156.3V19.7986ZM162.66 16.9155C162.192 16.9155 161.8 16.7701 161.484 16.4793C161.18 16.1758 161.028 15.8028 161.028 15.3602C161.028 14.9176 161.18 14.5509 161.484 14.2601C161.8 13.9566 162.192 13.8048 162.66 13.8048C163.127 13.8048 163.513 13.9566 163.817 14.2601C164.133 14.5509 164.291 14.9176 164.291 15.3602C164.291 15.8028 164.133 16.1758 163.817 16.4793C163.513 16.7701 163.127 16.9155 162.66 16.9155ZM163.968 18.1674V28.6755H161.313V18.1674H163.968ZM176.36 23.1939C176.36 23.5732 176.335 23.9146 176.284 24.2181H168.603C168.666 24.9768 168.931 25.5711 169.399 26.0011C169.867 26.431 170.442 26.646 171.125 26.646C172.112 26.646 172.813 26.2224 173.231 25.3751H176.095C175.791 26.3868 175.21 27.2213 174.35 27.8789C173.49 28.5238 172.434 28.8462 171.182 28.8462C170.171 28.8462 169.26 28.625 168.451 28.1824C167.654 27.7272 167.028 27.0886 166.573 26.2666C166.13 25.4447 165.909 24.4963 165.909 23.4215C165.909 22.334 166.13 21.3793 166.573 20.5573C167.016 19.7354 167.635 19.1032 168.432 18.6606C169.228 18.218 170.145 17.9967 171.182 17.9967C172.181 17.9967 173.073 18.2117 173.857 18.6416C174.653 19.0715 175.267 19.6848 175.696 20.4815C176.139 21.2655 176.36 22.1696 176.36 23.1939ZM173.61 22.4351C173.597 21.7523 173.351 21.2086 172.87 20.8039C172.39 20.3866 171.802 20.178 171.106 20.178C170.449 20.178 169.892 20.3803 169.437 20.785C168.995 21.177 168.723 21.727 168.622 22.4351H173.61ZM182.32 28.8462C181.46 28.8462 180.689 28.6945 180.006 28.391C179.323 28.0749 178.779 27.6513 178.375 27.1202C177.983 26.5891 177.768 26.0011 177.73 25.3562H180.404C180.455 25.7608 180.651 26.0959 180.992 26.3615C181.346 26.627 181.782 26.7598 182.301 26.7598C182.807 26.7598 183.199 26.6586 183.477 26.4563C183.768 26.254 183.913 25.9948 183.913 25.6786C183.913 25.3372 183.736 25.0843 183.382 24.9199C183.041 24.7429 182.491 24.5532 181.732 24.3509C180.948 24.1612 180.303 23.9652 179.797 23.7629C179.304 23.5606 178.874 23.2508 178.507 22.8335C178.153 22.4162 177.976 21.8535 177.976 21.1453C177.976 20.5637 178.141 20.0326 178.469 19.5521C178.811 19.0715 179.291 18.6922 179.911 18.414C180.543 18.1358 181.283 17.9967 182.13 17.9967C183.382 17.9967 184.381 18.3128 185.127 18.9451C185.873 19.5647 186.284 20.4056 186.36 21.4678H183.818C183.78 21.0505 183.603 20.7217 183.287 20.4815C182.984 20.2286 182.573 20.1021 182.054 20.1021C181.574 20.1021 181.201 20.1906 180.935 20.3677C180.682 20.5447 180.556 20.7913 180.556 21.1074C180.556 21.4615 180.733 21.7333 181.087 21.923C181.441 22.1001 181.991 22.2834 182.737 22.4731C183.496 22.6628 184.122 22.8588 184.615 23.0611C185.108 23.2634 185.532 23.5795 185.886 24.0095C186.252 24.4268 186.442 24.9831 186.455 25.6786C186.455 26.2856 186.284 26.8293 185.943 27.3099C185.614 27.7904 185.133 28.1697 184.501 28.4479C183.881 28.7135 183.154 28.8462 182.32 28.8462Z" fill="#ED1C24"/>
</svg>
