<svg width="10" height="10" viewBox="0 0 10 10" fill="none" xmlns="http://www.w3.org/2000/svg">
<path d="M10.0001 7.8977C10.0001 8.02555 9.97644 8.19245 9.92909 8.39842C9.88174 8.60439 9.83202 8.76656 9.77994 8.88493C9.68051 9.12168 9.39168 9.37263 8.91345 9.63778C8.46837 9.87926 8.02802 10 7.59241 10C7.46457 10 7.3391 9.99171 7.21599 9.97514C7.09288 9.95857 6.95675 9.92898 6.8076 9.88636C6.65845 9.84375 6.54718 9.80942 6.47379 9.78338C6.4004 9.75734 6.26901 9.7088 6.07961 9.63778C5.89022 9.56676 5.77421 9.52414 5.7316 9.50994C5.26758 9.34422 4.85327 9.14772 4.48869 8.92044C3.88735 8.54639 3.26235 8.03502 2.61367 7.38633C1.96498 6.73765 1.45361 6.11265 1.07956 5.51131C0.852282 5.14673 0.655784 4.73242 0.490062 4.2684C0.475858 4.22579 0.433243 4.10978 0.36222 3.92039C0.291196 3.73099 0.242664 3.5996 0.216622 3.52621C0.19058 3.45282 0.156252 3.34155 0.113638 3.1924C0.0710235 3.04325 0.0414304 2.90712 0.0248582 2.78401C0.00828608 2.6609 0 2.53543 0 2.40759C0 1.97198 0.12074 1.53163 0.36222 1.08655C0.627374 0.608324 0.878324 0.319494 1.11507 0.220061C1.23344 0.167978 1.39561 0.118262 1.60158 0.0709121C1.80755 0.0235635 1.97445 -0.000111263 2.1023 -0.000111263C2.16858 -0.000111263 2.2183 0.00699138 2.25145 0.0211956C2.33667 0.0496052 2.46215 0.229532 2.62787 0.560975C2.67995 0.650937 2.75098 0.77878 2.84094 0.944501C2.9309 1.11022 3.01376 1.26056 3.08952 1.3955C3.16528 1.53045 3.23867 1.6571 3.3097 1.77548C3.3239 1.79442 3.36533 1.8536 3.43399 1.95304C3.50264 2.05247 3.55354 2.13651 3.58669 2.20517C3.61983 2.27383 3.6364 2.3413 3.6364 2.40759C3.6364 2.50228 3.56893 2.62066 3.43399 2.7627C3.29904 2.90475 3.15226 3.03496 2.99364 3.15333C2.83502 3.27171 2.68824 3.39718 2.5533 3.52976C2.41835 3.66233 2.35088 3.77124 2.35088 3.85647C2.35088 3.89908 2.36272 3.95235 2.38639 4.01627C2.41006 4.08019 2.43019 4.12872 2.44676 4.16187C2.46333 4.19501 2.49648 4.25183 2.54619 4.33232C2.59591 4.41282 2.62314 4.4578 2.62787 4.46727C2.98772 5.11595 3.39966 5.6723 3.86368 6.13632C4.3277 6.60034 4.88405 7.01228 5.53273 7.37213C5.5422 7.37686 5.58718 7.40409 5.66768 7.45381C5.74817 7.50352 5.80499 7.53667 5.83813 7.55324C5.87128 7.56981 5.91981 7.58994 5.98373 7.61361C6.04765 7.63728 6.10092 7.64912 6.14353 7.64912C6.22876 7.64912 6.33767 7.58165 6.47024 7.4467C6.60282 7.31176 6.72829 7.16498 6.84667 7.00636C6.96504 6.84774 7.09525 6.70096 7.2373 6.56601C7.37934 6.43107 7.49772 6.3636 7.59241 6.3636C7.6587 6.3636 7.72617 6.38017 7.79483 6.41331C7.86349 6.44646 7.94753 6.49736 8.04696 6.56601C8.1464 6.63467 8.20558 6.6761 8.22452 6.6903C8.3429 6.76133 8.46955 6.83472 8.6045 6.91048C8.73944 6.98624 8.88978 7.0691 9.0555 7.15906C9.22122 7.24902 9.34906 7.32005 9.43902 7.37213C9.77047 7.53785 9.95039 7.66333 9.9788 7.74855C9.99301 7.7817 10.0001 7.83142 10.0001 7.8977Z" fill="#8897A2"/>
</svg>
