<svg width="24" height="24" viewBox="0 0 24 24" fill="none" xmlns="http://www.w3.org/2000/svg">
<path d="M17.13 18.15L16.62 17.64C16.44 17.46 16.2252 17.37 15.9756 17.37C15.726 17.37 15.5108 17.46 15.33 17.64C15.15 17.82 15.06 18.03 15.06 18.27C15.06 18.51 15.15 18.72 15.33 18.9L16.5 20.07C16.68 20.25 16.89 20.34 17.13 20.34C17.37 20.34 17.58 20.25 17.76 20.07L20.67 17.22C20.85 17.04 20.94 16.8248 20.94 16.5744C20.94 16.324 20.85 16.1092 20.67 15.93C20.49 15.75 20.2748 15.66 20.0244 15.66C19.774 15.66 19.5592 15.75 19.38 15.93L17.13 18.15ZM4.8 7.2H16.8C17.14 7.2 17.4252 7.0848 17.6556 6.8544C17.886 6.624 18.0008 6.3392 18 6C18 5.66 17.8848 5.3748 17.6544 5.1444C17.424 4.914 17.1392 4.7992 16.8 4.8H4.8C4.46 4.8 4.1748 4.9152 3.9444 5.1456C3.714 5.376 3.5992 5.6608 3.6 6C3.6 6.34 3.7152 6.6252 3.9456 6.8556C4.176 7.086 4.4608 7.2008 4.8 7.2ZM18 24C16.34 24 14.9248 23.4148 13.7544 22.2444C12.584 21.074 11.9992 19.6592 12 18C12 16.34 12.5852 14.9248 13.7556 13.7544C14.926 12.584 16.3408 11.9992 18 12C19.66 12 21.0752 12.5852 22.2456 13.7556C23.416 14.926 24.0008 16.3408 24 18C24 19.66 23.4148 21.0752 22.2444 22.2456C21.074 23.416 19.6592 24.0008 18 24ZM0 22.65V2.4C0 1.74 0.2352 1.1748 0.7056 0.704402C1.176 0.234002 1.7408 -0.000797963 2.4 2.03735e-06H19.2C19.86 2.03735e-06 20.4252 0.235202 20.8956 0.705602C21.366 1.176 21.6008 1.7408 21.6 2.4V10.41C21.22 10.23 20.83 10.08 20.43 9.96C20.03 9.84 19.62 9.75 19.2 9.69V2.4H2.4V19.26H9.69C9.79 19.88 9.9452 20.47 10.1556 21.03C10.366 21.59 10.6408 22.12 10.98 22.62C10.88 22.64 10.7748 22.6248 10.6644 22.5744C10.554 22.524 10.4592 22.4592 10.38 22.38L9.42 21.42C9.3 21.3 9.16 21.24 9 21.24C8.84 21.24 8.7 21.3 8.58 21.42L7.62 22.38C7.5 22.5 7.36 22.56 7.2 22.56C7.04 22.56 6.9 22.5 6.78 22.38L5.82 21.42C5.7 21.3 5.56 21.24 5.4 21.24C5.24 21.24 5.1 21.3 4.98 21.42L4.02 22.38C3.9 22.5 3.76 22.56 3.6 22.56C3.44 22.56 3.3 22.5 3.18 22.38L2.22 21.42C2.1 21.3 1.96 21.24 1.8 21.24C1.64 21.24 1.5 21.3 1.38 21.42L0.42 22.38L0 22.65ZM4.8 16.8H9.69C9.75 16.38 9.84 15.97 9.96 15.57C10.08 15.17 10.23 14.78 10.41 14.4H4.8C4.46 14.4 4.1748 14.5152 3.9444 14.7456C3.714 14.976 3.5992 15.2608 3.6 15.6C3.6 15.94 3.7152 16.2252 3.9456 16.4556C4.176 16.686 4.4608 16.8008 4.8 16.8ZM4.8 12H12.12C12.88 11.26 13.7652 10.6748 14.7756 10.2444C15.786 9.814 16.8608 9.5992 18 9.6H4.8C4.46 9.6 4.1748 9.7152 3.9444 9.9456C3.714 10.176 3.5992 10.4608 3.6 10.8C3.6 11.14 3.7152 11.4252 3.9456 11.6556C4.176 11.886 4.4608 12.0008 4.8 12Z" fill="#ED1C24"/>
</svg>
