<svg width="16" height="15" viewBox="0 0 16 15" fill="none" xmlns="http://www.w3.org/2000/svg">
<path d="M7.27539 0.358003C7.51249 -0.119181 8.1932 -0.11918 8.43029 0.358005L10.3666 4.25515C10.4605 4.44412 10.6409 4.57519 10.8496 4.60609L15.1544 5.24335C15.6815 5.32138 15.8918 5.96877 15.5113 6.34172L12.4032 9.38755C12.2525 9.53523 12.1836 9.74731 12.2187 9.95537L12.9429 14.2464C13.0316 14.7718 12.4809 15.1719 12.0086 14.9252L8.15137 12.9105C7.96434 12.8128 7.74134 12.8128 7.55432 12.9105L3.69712 14.9252C3.22483 15.1719 2.67412 14.7718 2.76279 14.2464L3.48697 9.95537C3.52208 9.74731 3.45317 9.53523 3.30247 9.38755L0.194413 6.34172C-0.186151 5.96877 0.0242019 5.32138 0.551296 5.24335L4.85606 4.60609C5.06479 4.57519 5.24519 4.44412 5.33908 4.25515L7.27539 0.358003Z" fill="#FEA500"/>
</svg>
