<svg width="16" height="15" viewBox="0 0 16 15" fill="none" xmlns="http://www.w3.org/2000/svg">
<path d="M7.27515 0.358003C7.51224 -0.119181 8.19295 -0.11918 8.43004 0.358005L10.3664 4.25515C10.4602 4.44412 10.6406 4.57519 10.8494 4.60609L15.1541 5.24335C15.6812 5.32138 15.8916 5.96877 15.511 6.34172L12.403 9.38755C12.2523 9.53523 12.1834 9.74731 12.2185 9.95537L12.9426 14.2464C13.0313 14.7718 12.4806 15.1719 12.0083 14.9252L8.15112 12.9105C7.96409 12.8128 7.7411 12.8128 7.55407 12.9105L3.69687 14.9252C3.22458 15.1719 2.67387 14.7718 2.76254 14.2464L3.48672 9.95537C3.52183 9.74731 3.45293 9.53523 3.30222 9.38755L0.194166 6.34172C-0.186398 5.96877 0.0239546 5.32138 0.551049 5.24335L4.85581 4.60609C5.06454 4.57519 5.24495 4.44412 5.33883 4.25515L7.27515 0.358003Z" fill="#FEA500"/>
</svg>
