<svg width="176" height="59" viewBox="0 0 176 59" fill="none" xmlns="http://www.w3.org/2000/svg">
<rect width="175.406" height="59" rx="7.97298" fill="#F9F9F9"/>
<circle cx="146.703" cy="29.5001" r="7.97298" fill="#F3F3F3"/>
<path d="M32.9733 20.618C32.2904 21.4284 31.1978 22.0657 30.1052 21.9747C29.9686 20.8821 30.5058 19.7166 31.1341 19.0064C31.8169 18.1779 33.0097 17.5861 33.9839 17.5405C34.0932 18.6696 33.6471 19.7895 32.9733 20.618ZM33.9657 22.1841C32.3815 22.093 31.0248 23.0855 30.2782 23.0855C29.5134 23.0855 28.3661 22.2296 27.1096 22.2569C25.4798 22.2843 23.9684 23.2039 23.1398 24.6698C21.4281 27.6107 22.6937 31.9538 24.3508 34.3484C25.1612 35.5321 26.1263 36.8341 27.401 36.7886C28.612 36.743 29.0854 36.0055 30.5422 36.0055C32.0082 36.0055 32.4361 36.7886 33.7108 36.7704C35.031 36.743 35.8596 35.5867 36.6699 34.4031C37.5895 33.0555 37.9719 31.7535 37.9902 31.6806C37.9628 31.6533 35.4407 30.6882 35.4134 27.7746C35.3861 25.3344 37.4074 24.1781 37.4985 24.1053C36.3604 22.4117 34.5849 22.2296 33.9657 22.1841ZM43.1072 18.8881V36.6338H45.866V30.5698H49.681C53.1683 30.5698 55.6084 28.1752 55.6084 24.7153C55.6084 21.2554 53.2047 18.8881 49.7721 18.8881H43.1072ZM45.866 21.2099H49.0437C51.4383 21.2099 52.8041 22.4846 52.8041 24.7244C52.8041 26.9642 51.4383 28.2572 49.0346 28.2572H45.866V21.2099ZM60.6344 36.7704C62.3643 36.7704 63.9668 35.8963 64.6952 34.5032H64.7499V36.6338H67.2993V27.8019C67.2993 25.2434 65.2506 23.5863 62.1003 23.5863C59.1776 23.5863 57.0106 25.2616 56.9286 27.5561H59.4143C59.6237 26.4635 60.6344 25.7442 62.0183 25.7442C63.7028 25.7442 64.6497 26.5272 64.6497 27.9749V28.9582L61.208 29.1677C58.0121 29.3589 56.2822 30.67 56.2822 32.9462C56.2913 35.2407 58.0759 36.7704 60.6344 36.7704ZM61.381 34.6671C59.9151 34.6671 58.9773 33.9569 58.9773 32.8825C58.9773 31.7626 59.8787 31.1161 61.5995 31.016L64.6588 30.8248V31.8263C64.6588 33.4834 63.2475 34.6671 61.381 34.6671ZM70.7137 41.4595C73.3996 41.4595 74.6652 40.4306 75.7669 37.3258L80.6017 23.7593H77.7974L74.556 34.2392H74.5013L71.26 23.7593H68.3828L73.0445 36.6793L72.7896 37.4623C72.3708 38.7917 71.6879 39.3107 70.4678 39.3107C70.2493 39.3107 69.8305 39.2834 69.6575 39.2651V41.3957C69.8214 41.4321 70.5042 41.4595 70.7137 41.4595Z" fill="black"/>
</svg>
