<svg width="120" height="120" viewBox="0 0 120 120" fill="none" xmlns="http://www.w3.org/2000/svg">
<path d="M18 108C17.9938 100.047 20.2461 92.2548 24.4948 85.5312C28.7435 78.8076 34.814 73.4286 42 70.02V49.98C34.814 46.5714 28.7435 41.1924 24.4948 34.4688C20.2461 27.7452 17.9938 19.9535 18 12H6V0H114V12H102C102.006 19.9535 99.7539 27.7452 95.5052 34.4688C91.2565 41.1924 85.186 46.5714 78 49.98V70.02C85.186 73.4286 91.2565 78.8076 95.5052 85.5312C99.7539 92.2548 102.006 100.047 102 108H114V120H6V108H18ZM30 12C29.9986 18.9159 32.3867 25.6199 36.7602 30.9774C41.1336 36.3349 47.2238 40.0168 54 41.4V60H66V41.4C72.7762 40.0168 78.8664 36.3349 83.2398 30.9774C87.6133 25.6199 90.0014 18.9159 90 12H30Z" fill="black"/>
</svg>
