<svg width="21" height="24" viewBox="0 0 21 24" fill="none" xmlns="http://www.w3.org/2000/svg">
<g clip-path="url(#clip0_353_766)">
<path d="M17.2585 1.86817C16.1512 0.606029 14.1495 0.0649165 11.5887 0.0649165H4.15669C3.90333 0.0649259 3.65828 0.155317 3.4656 0.319839C3.27292 0.48436 3.14525 0.71222 3.10554 0.962452L0.0109701 20.589C-0.0505398 20.976 0.249142 21.3264 0.641407 21.3264H5.2297L6.38201 14.0175L6.34625 14.2464C6.42834 13.7297 6.8702 13.3487 7.39343 13.3487H9.57377C13.8571 13.3487 17.2109 11.6089 18.1906 6.57615C18.2197 6.4273 18.2449 6.28242 18.2667 6.14089C18.143 6.0754 18.143 6.0754 18.2667 6.14089C18.5584 4.28073 18.2647 3.01453 17.2585 1.86817Z" fill="#27346A"/>
<path d="M8.13767 5.47079C8.26311 5.41107 8.4003 5.38011 8.53923 5.3802H14.3658C15.0558 5.3802 15.6993 5.4251 16.2874 5.51975C16.452 5.54599 16.6157 5.57731 16.7783 5.61368C17.0088 5.66454 17.2366 5.72679 17.461 5.8002C17.7501 5.89675 18.0193 6.0092 18.2668 6.14089C18.5584 4.28001 18.2647 3.01453 17.2585 1.86817C16.1506 0.606029 14.1495 0.0649165 11.5887 0.0649165H4.15605C3.63274 0.0649165 3.18755 0.445896 3.10554 0.962452L0.0109705 20.5882C-0.0505394 20.9759 0.249143 21.3259 0.640772 21.3259H5.2297L7.6204 6.16536C7.64391 6.01635 7.70327 5.87527 7.79337 5.75428C7.88348 5.63329 8.00163 5.53601 8.13767 5.47079Z" fill="#27346A"/>
<path d="M18.1901 6.57611C17.2104 11.6082 13.8566 13.3486 9.57321 13.3486H7.39223C6.869 13.3486 6.42707 13.7297 6.34577 14.2463L4.91221 23.3341C4.85865 23.6728 5.12058 23.9798 5.46326 23.9798H9.33107C9.55263 23.9797 9.7669 23.9006 9.93534 23.7567C10.1038 23.6127 10.2154 23.4134 10.25 23.1946L10.2876 22.9975L11.0166 18.3774L11.0636 18.1221C11.0982 17.9033 11.2098 17.704 11.3782 17.56C11.5466 17.4161 11.7609 17.337 11.9824 17.3369H12.5613C16.3081 17.3369 19.2419 15.8148 20.0992 11.4124C20.457 9.5727 20.2719 8.0367 19.3252 6.95781C19.0381 6.63103 18.6815 6.36115 18.2661 6.14086C18.2436 6.28311 18.2192 6.42727 18.1901 6.57611Z" fill="#2790C3"/>
<path d="M17.2411 5.73196C17.0884 5.68735 16.9342 5.64786 16.7788 5.61355C16.6161 5.57778 16.4524 5.54666 16.2879 5.52025C15.6992 5.42497 15.0561 5.37999 14.3655 5.37999H8.53961C8.40057 5.37967 8.26327 5.41089 8.13805 5.4713C8.00186 5.53631 7.88357 5.63354 7.79342 5.75457C7.70328 5.87559 7.64399 6.01677 7.6207 6.16587L6.38239 14.0174L6.34663 14.2462C6.42809 13.7296 6.86994 13.3485 7.39325 13.3485H9.57423C13.8575 13.3485 17.2113 11.6088 18.191 6.57601C18.2202 6.42717 18.2447 6.28293 18.2672 6.14076C18.019 6.00979 17.7505 5.89662 17.4613 5.8007C17.3884 5.77651 17.315 5.7536 17.2412 5.73196" fill="#1F264F"/>
</g>
<defs>
<clipPath id="clip0_353_766">
<rect width="20.2757" height="23.9189" fill="white" transform="scale(1.00339)"/>
</clipPath>
</defs>
</svg>
