<svg width="150" height="26" viewBox="0 0 150 26" fill="none" xmlns="http://www.w3.org/2000/svg">
<path d="M8.71438 19.5048C7.12117 19.5048 5.6567 19.1346 4.32098 18.3943C3.00135 17.6541 1.94726 16.6241 1.1587 15.3045C0.386233 13.9688 0 12.4721 0 10.8145C0 9.15694 0.386233 7.66833 1.1587 6.3487C1.94726 5.02908 3.00135 3.99912 4.32098 3.25884C5.6567 2.51856 7.12117 2.14842 8.71438 2.14842C10.3076 2.14842 11.764 2.51856 13.0836 3.25884C14.4194 3.99912 15.4654 5.02908 16.2218 6.3487C16.9942 7.66833 17.3805 9.15694 17.3805 10.8145C17.3805 12.4721 16.9942 13.9688 16.2218 15.3045C15.4493 16.6241 14.4033 17.6541 13.0836 18.3943C11.764 19.1346 10.3076 19.5048 8.71438 19.5048ZM8.71438 15.739C10.0662 15.739 11.1444 15.2884 11.9491 14.3872C12.7698 13.486 13.1802 12.2951 13.1802 10.8145C13.1802 9.31787 12.7698 8.12699 11.9491 7.24187C11.1444 6.34066 10.0662 5.89005 8.71438 5.89005C7.34647 5.89005 6.25215 6.33261 5.4314 7.21773C4.62675 8.10285 4.22442 9.30178 4.22442 10.8145C4.22442 12.3112 4.62675 13.5101 5.4314 14.4113C6.25215 15.2964 7.34647 15.739 8.71438 15.739Z" fill="black"/>
<path d="M23.8048 8.11089C24.2876 7.37061 24.8911 6.79126 25.6153 6.37284C26.3395 5.93833 27.1441 5.72108 28.0292 5.72108V10.0903H26.8947C25.8647 10.0903 25.0923 10.3156 24.5773 10.7662C24.0623 11.2008 23.8048 11.9732 23.8048 13.0836V19.3358H19.6769V5.86591H23.8048V8.11089Z" fill="black"/>
<path d="M29.1815 12.5767C29.1815 11.1927 29.439 9.97768 29.954 8.93164C30.4851 7.88559 31.2012 7.08094 32.1024 6.51768C33.0036 5.95442 34.0094 5.6728 35.1198 5.6728C36.005 5.6728 36.8096 5.85787 37.5338 6.22801C38.2741 6.59815 38.8534 7.09703 39.2719 7.72466V1.47251H43.3997V19.3358H39.2719V17.4046C38.8856 18.0483 38.3304 18.5633 37.6062 18.9496C36.8981 19.3358 36.0693 19.5289 35.1198 19.5289C34.0094 19.5289 33.0036 19.2473 32.1024 18.684C31.2012 18.1047 30.4851 17.292 29.954 16.2459C29.439 15.1838 29.1815 13.9607 29.1815 12.5767ZM39.2719 12.6008C39.2719 11.5709 38.9822 10.7582 38.4028 10.1628C37.8396 9.56731 37.1476 9.26959 36.3268 9.26959C35.5061 9.26959 34.806 9.56731 34.2267 10.1628C33.6634 10.7421 33.3818 11.5468 33.3818 12.5767C33.3818 13.6067 33.6634 14.4274 34.2267 15.0389C34.806 15.6344 35.5061 15.9321 36.3268 15.9321C37.1476 15.9321 37.8396 15.6344 38.4028 15.0389C38.9822 14.4435 39.2719 13.6308 39.2719 12.6008Z" fill="black"/>
<path d="M59.0835 12.3836C59.0835 12.7698 59.0593 13.1722 59.011 13.5906H49.669C49.7334 14.4274 49.9989 15.0711 50.4656 15.5217C50.9484 15.9562 51.5358 16.1735 52.2278 16.1735C53.2578 16.1735 53.9739 15.739 54.3762 14.87H58.7696C58.5443 15.7551 58.134 16.5517 57.5385 17.2598C56.9592 17.9679 56.2269 18.5231 55.3418 18.9254C54.4567 19.3277 53.467 19.5289 52.3727 19.5289C51.053 19.5289 49.8782 19.2473 48.8483 18.684C47.8183 18.1208 47.0137 17.3161 46.4343 16.2701C45.855 15.224 45.5653 14.0009 45.5653 12.6008C45.5653 11.2008 45.8469 9.97768 46.4102 8.93164C46.9895 7.88559 47.7942 7.08094 48.8241 6.51768C49.8541 5.95442 51.0369 5.6728 52.3727 5.6728C53.6762 5.6728 54.8349 5.94638 55.8488 6.49354C56.8626 7.04071 57.6512 7.82122 58.2144 8.83508C58.7938 9.84894 59.0835 11.0318 59.0835 12.3836ZM54.859 11.2973C54.859 10.5892 54.6176 10.026 54.1348 9.60754C53.6521 9.18912 53.0486 8.97992 52.3244 8.97992C51.6324 8.97992 51.045 9.18108 50.5622 9.5834C50.0955 9.98573 49.8058 10.557 49.6932 11.2973H54.859Z" fill="black"/>
<path d="M65.389 8.11089C65.8718 7.37061 66.4752 6.79126 67.1994 6.37284C67.9236 5.93833 68.7283 5.72108 69.6134 5.72108V10.0903H68.4788C67.4489 10.0903 66.6764 10.3156 66.1614 10.7662C65.6465 11.2008 65.389 11.9732 65.389 13.0836V19.3358H61.2611V5.86591H65.389V8.11089Z" fill="black"/>
<path d="M80.8298 8.11089C81.3126 7.37061 81.9161 6.79126 82.6403 6.37284C83.3645 5.93833 84.1691 5.72108 85.0542 5.72108V10.0903H83.9197C82.8897 10.0903 82.1172 10.3156 81.6023 10.7662C81.0873 11.2008 80.8298 11.9732 80.8298 13.0836V19.3358H76.7019V5.86591H80.8298V8.11089Z" fill="black"/>
<path d="M86.2065 12.5767C86.2065 11.1927 86.464 9.97768 86.979 8.93164C87.51 7.88559 88.2262 7.08094 89.1274 6.51768C90.0286 5.95442 91.0344 5.6728 92.1448 5.6728C93.0943 5.6728 93.9231 5.86591 94.6312 6.25215C95.3554 6.63838 95.9106 7.14531 96.2968 7.77294V5.86591H100.425V19.3358H96.2968V17.4288C95.8945 18.0564 95.3313 18.5633 94.6071 18.9496C93.899 19.3358 93.0702 19.5289 92.1207 19.5289C91.0264 19.5289 90.0286 19.2473 89.1274 18.684C88.2262 18.1047 87.51 17.292 86.979 16.2459C86.464 15.1838 86.2065 13.9607 86.2065 12.5767ZM96.2968 12.6008C96.2968 11.5709 96.0072 10.7582 95.4278 10.1628C94.8646 9.56731 94.1726 9.26959 93.3518 9.26959C92.5311 9.26959 91.831 9.56731 91.2517 10.1628C90.6884 10.7421 90.4068 11.5468 90.4068 12.5767C90.4068 13.6067 90.6884 14.4274 91.2517 15.0389C91.831 15.6344 92.5311 15.9321 93.3518 15.9321C94.1726 15.9321 94.8646 15.6344 95.4278 15.0389C96.0072 14.4435 96.2968 13.6308 96.2968 12.6008Z" fill="black"/>
<path d="M110.918 15.8356V19.3358H108.818C107.322 19.3358 106.155 18.9737 105.318 18.2495C104.481 17.5092 104.063 16.3103 104.063 14.6527V9.29373H102.421V5.86591H104.063V2.58293H108.191V5.86591H110.894V9.29373H108.191V14.701C108.191 15.1033 108.287 15.393 108.48 15.57C108.673 15.747 108.995 15.8356 109.446 15.8356H110.918Z" fill="black"/>
<path d="M115.294 4.46582C114.57 4.46582 113.974 4.25661 113.507 3.83819C113.057 3.40368 112.831 2.87261 112.831 2.24498C112.831 1.60126 113.057 1.07019 113.507 0.651768C113.974 0.217256 114.57 0 115.294 0C116.002 0 116.581 0.217256 117.032 0.651768C117.498 1.07019 117.732 1.60126 117.732 2.24498C117.732 2.87261 117.498 3.40368 117.032 3.83819C116.581 4.25661 116.002 4.46582 115.294 4.46582ZM117.346 5.86591V19.3358H113.218V5.86591H117.346Z" fill="black"/>
<path d="M128.544 5.72108C130.122 5.72108 131.377 6.23605 132.31 7.26601C133.26 8.27987 133.734 9.67996 133.734 11.4663V19.3358H129.631V12.0215C129.631 11.1203 129.397 10.4202 128.931 9.92136C128.464 9.42247 127.836 9.17303 127.048 9.17303C126.259 9.17303 125.632 9.42247 125.165 9.92136C124.698 10.4202 124.465 11.1203 124.465 12.0215V19.3358H120.337V5.86591H124.465V7.65224C124.883 7.0568 125.447 6.5901 126.155 6.25215C126.863 5.8981 127.659 5.72108 128.544 5.72108Z" fill="black"/>
<path d="M141.721 5.6728C142.67 5.6728 143.499 5.86591 144.207 6.25215C144.931 6.63838 145.486 7.14531 145.873 7.77294V5.86591H150V19.3116C150 20.5508 149.751 21.6693 149.252 22.667C148.769 23.6809 148.021 24.4856 147.007 25.081C146.009 25.6764 144.762 25.9742 143.265 25.9742C141.27 25.9742 139.653 25.4994 138.413 24.5499C137.174 23.6165 136.466 22.3452 136.289 20.7359H140.369C140.497 21.2509 140.803 21.6532 141.286 21.9429C141.769 22.2486 142.364 22.4015 143.072 22.4015C143.925 22.4015 144.601 22.1521 145.1 21.6532C145.615 21.1704 145.873 20.3899 145.873 19.3116V17.4046C145.47 18.0323 144.915 18.5472 144.207 18.9496C143.499 19.3358 142.67 19.5289 141.721 19.5289C140.61 19.5289 139.604 19.2473 138.703 18.684C137.802 18.1047 137.086 17.292 136.555 16.2459C136.04 15.1838 135.782 13.9607 135.782 12.5767C135.782 11.1927 136.04 9.97768 136.555 8.93164C137.086 7.88559 137.802 7.08094 138.703 6.51768C139.604 5.95442 140.61 5.6728 141.721 5.6728ZM145.873 12.6008C145.873 11.5709 145.583 10.7582 145.003 10.1628C144.44 9.56731 143.748 9.26959 142.927 9.26959C142.107 9.26959 141.407 9.56731 140.827 10.1628C140.264 10.7421 139.982 11.5468 139.982 12.5767C139.982 13.6067 140.264 14.4274 140.827 15.0389C141.407 15.6344 142.107 15.9321 142.927 15.9321C143.748 15.9321 144.44 15.6344 145.003 15.0389C145.583 14.4435 145.873 13.6308 145.873 12.6008Z" fill="black"/>
</svg>
