<svg width="30" height="30" viewBox="0 0 30 30" fill="none" xmlns="http://www.w3.org/2000/svg">
<path d="M21.4408 18.8679H20.0858L19.6055 18.4048C21.3445 16.3877 22.3003 13.8125 22.2985 11.1492C22.2985 8.94412 21.6446 6.78853 20.4195 4.95505C19.1944 3.12157 17.4531 1.69255 15.4159 0.848689C13.3786 0.00483079 11.1369 -0.215961 8.97412 0.214234C6.81139 0.64443 4.82478 1.70629 3.26554 3.26554C1.70629 4.82478 0.64443 6.81139 0.214234 8.97412C-0.215961 11.1369 0.00483079 13.3786 0.848689 15.4159C1.69255 17.4531 3.12157 19.1944 4.95505 20.4195C6.78853 21.6446 8.94412 22.2985 11.1492 22.2985C13.9108 22.2985 16.4494 21.2865 18.4048 19.6055L18.8679 20.0858V21.4408L27.4443 30L30 27.4443L21.4408 18.8679ZM11.1492 18.8679C6.87822 18.8679 3.43054 15.4202 3.43054 11.1492C3.43054 6.87822 6.87822 3.43054 11.1492 3.43054C15.4202 3.43054 18.8679 6.87822 18.8679 11.1492C18.8679 15.4202 15.4202 18.8679 11.1492 18.8679Z" fill="#525766" fill-opacity="0.7"/>
</svg>
