<svg width="162" height="39" viewBox="0 0 162 39" fill="none" xmlns="http://www.w3.org/2000/svg">
<path d="M0 19.3037C0 8.64258 8.64258 0 19.3037 0H142.448C153.109 0 161.752 8.64258 161.752 19.3037C161.752 29.9649 153.109 38.6075 142.448 38.6075H19.3037C8.64259 38.6075 0 29.9649 0 19.3037Z" fill="#ED1C24"/>
<path d="M61.2831 24.0999C60.6534 24.0999 60.084 23.9921 59.575 23.7764C59.0747 23.5608 58.6779 23.2502 58.3845 22.8447C58.0912 22.4393 57.9403 21.9605 57.9316 21.4084H59.8727C59.8985 21.7793 60.0279 22.0726 60.2609 22.2883C60.5024 22.504 60.8302 22.6118 61.2443 22.6118C61.667 22.6118 61.9992 22.5126 62.2407 22.3142C62.4823 22.1071 62.603 21.8397 62.603 21.5119C62.603 21.2445 62.5211 21.0245 62.3572 20.8519C62.1933 20.6794 61.9862 20.5457 61.736 20.4508C61.4945 20.3473 61.1581 20.2351 60.7267 20.1144C60.1401 19.9418 59.6613 19.7736 59.2904 19.6097C58.928 19.4372 58.6132 19.1827 58.3457 18.8462C58.0869 18.5011 57.9575 18.0439 57.9575 17.4746C57.9575 16.9397 58.0912 16.4739 58.3587 16.077C58.6261 15.6802 59.0014 15.3783 59.4845 15.1712C59.9676 14.9555 60.5197 14.8477 61.1408 14.8477C62.0725 14.8477 62.8273 15.0763 63.4053 15.5335C63.9919 15.9821 64.3155 16.6119 64.3758 17.4228H62.3831C62.3658 17.1122 62.2321 16.8577 61.9819 16.6593C61.7404 16.4523 61.4169 16.3488 61.0114 16.3488C60.6577 16.3488 60.373 16.4394 60.1573 16.6205C59.9503 16.8017 59.8468 17.0648 59.8468 17.4099C59.8468 17.6514 59.9244 17.8541 60.0797 18.018C60.2436 18.1733 60.442 18.3027 60.675 18.4063C60.9165 18.5011 61.2529 18.6133 61.6843 18.7427C62.2709 18.9152 62.7497 19.0878 63.1206 19.2603C63.4916 19.4328 63.8108 19.6916 64.0782 20.0367C64.3456 20.3818 64.4794 20.8347 64.4794 21.3954C64.4794 21.8785 64.3543 22.3271 64.1041 22.7412C63.8539 23.1553 63.4873 23.4874 63.0042 23.7376C62.5211 23.9791 61.9474 24.0999 61.2831 24.0999Z" fill="white"/>
<path d="M72.8177 16.8405V24.0093H70.9931V23.1035C70.7602 23.4141 70.4539 23.66 70.0744 23.8411C69.7034 24.0137 69.298 24.0999 68.858 24.0999C68.2972 24.0999 67.8012 23.9835 67.3699 23.7505C66.9385 23.509 66.5978 23.1596 66.3476 22.7024C66.106 22.2365 65.9853 21.6844 65.9853 21.046V16.8405H67.7969V20.7872C67.7969 21.3566 67.9392 21.7966 68.2239 22.1071C68.5086 22.4091 68.8968 22.56 69.3885 22.56C69.8889 22.56 70.2814 22.4091 70.5661 22.1071C70.8508 21.7966 70.9931 21.3566 70.9931 20.7872V16.8405H72.8177Z" fill="white"/>
<path d="M76.4168 17.8886C76.6497 17.5436 76.9689 17.2632 77.3743 17.0475C77.7884 16.8319 78.2586 16.724 78.7848 16.724C79.3973 16.724 79.9494 16.875 80.4412 17.1769C80.9415 17.4789 81.334 17.9102 81.6187 18.471C81.912 19.0231 82.0587 19.6658 82.0587 20.399C82.0587 21.1323 81.912 21.7836 81.6187 22.353C81.334 22.9137 80.9415 23.3494 80.4412 23.66C79.9494 23.9705 79.3973 24.1258 78.7848 24.1258C78.2499 24.1258 77.7798 24.0223 77.3743 23.8152C76.9775 23.5996 76.6583 23.3235 76.4168 22.9871V24.0093H74.6051V14.4336H76.4168V17.8886ZM80.2082 20.399C80.2082 19.9677 80.1176 19.5967 79.9365 19.2862C79.7639 18.967 79.531 18.7254 79.2377 18.5615C78.953 18.3976 78.6425 18.3157 78.306 18.3157C77.9782 18.3157 77.6676 18.4019 77.3743 18.5745C77.0896 18.7384 76.8567 18.9799 76.6756 19.2991C76.503 19.6183 76.4168 19.9936 76.4168 20.4249C76.4168 20.8563 76.503 21.2315 76.6756 21.5507C76.8567 21.8699 77.0896 22.1158 77.3743 22.2883C77.6676 22.4522 77.9782 22.5342 78.306 22.5342C78.6425 22.5342 78.953 22.4479 79.2377 22.2754C79.531 22.1028 79.7639 21.857 79.9365 21.5378C80.1176 21.2186 80.2082 20.839 80.2082 20.399Z" fill="white"/>
<path d="M92.278 16.737C93.1579 16.737 93.8653 17.0087 94.4001 17.5522C94.9436 18.0871 95.2154 18.8376 95.2154 19.8038V24.0093H93.4038V20.0497C93.4038 19.4889 93.2614 19.0619 92.9767 18.7686C92.692 18.4666 92.3038 18.3157 91.8121 18.3157C91.3204 18.3157 90.9279 18.4666 90.6346 18.7686C90.3499 19.0619 90.2075 19.4889 90.2075 20.0497V24.0093H88.3959V20.0497C88.3959 19.4889 88.2536 19.0619 87.9689 18.7686C87.6842 18.4666 87.296 18.3157 86.8043 18.3157C86.3039 18.3157 85.9071 18.4666 85.6138 18.7686C85.3291 19.0619 85.1868 19.4889 85.1868 20.0497V24.0093H83.3751V16.8405H85.1868V17.7075C85.4197 17.4055 85.7173 17.1683 86.0796 16.9958C86.4506 16.8232 86.856 16.737 87.296 16.737C87.8567 16.737 88.3571 16.8577 88.7971 17.0993C89.237 17.3322 89.5778 17.6687 89.8193 18.1086C90.0522 17.6945 90.3887 17.3624 90.8287 17.1122C91.2773 16.8621 91.7604 16.737 92.278 16.737Z" fill="white"/>
<path d="M97.8532 15.9864C97.5341 15.9864 97.2666 15.8872 97.051 15.6888C96.8439 15.4818 96.7404 15.2273 96.7404 14.9254C96.7404 14.6234 96.8439 14.3732 97.051 14.1748C97.2666 13.9678 97.5341 13.8643 97.8532 13.8643C98.1724 13.8643 98.4356 13.9678 98.6426 14.1748C98.8583 14.3732 98.9661 14.6234 98.9661 14.9254C98.9661 15.2273 98.8583 15.4818 98.6426 15.6888C98.4356 15.8872 98.1724 15.9864 97.8532 15.9864ZM98.7461 16.8405V24.0093H96.9345V16.8405H98.7461Z" fill="white"/>
<path d="M102.645 18.3286V21.7966C102.645 22.0381 102.701 22.215 102.813 22.3271C102.934 22.4306 103.133 22.4824 103.409 22.4824H104.25V24.0093H103.111C101.584 24.0093 100.821 23.2674 100.821 21.7836V18.3286H99.9666V16.8405H100.821V15.0677H102.645V16.8405H104.25V18.3286H102.645Z" fill="white"/>
</svg>
