<svg width="18" height="18" viewBox="0 0 18 18" fill="none" xmlns="http://www.w3.org/2000/svg">
<path d="M15.8249 6.65627L9.52494 12.975C9.44994 13.05 9.36869 13.1032 9.28119 13.1347C9.19369 13.1662 9.09994 13.1817 8.99994 13.1812C8.89995 13.1812 8.8062 13.1657 8.7187 13.1347C8.6312 13.1037 8.54995 13.0505 8.47495 12.975L2.15624 6.65627C1.98124 6.48127 1.89374 6.26252 1.89374 6.00002C1.89374 5.73752 1.98749 5.51253 2.17499 5.32503C2.36249 5.13753 2.58123 5.04378 2.83123 5.04378C3.08123 5.04378 3.29998 5.13753 3.48748 5.32503L8.99994 10.8375L14.5124 5.32503C14.6874 5.15003 14.9032 5.06253 15.1597 5.06253C15.4162 5.06253 15.6379 5.15628 15.8249 5.34378C16.0124 5.53127 16.1061 5.75002 16.1061 6.00002C16.1061 6.25002 16.0124 6.46877 15.8249 6.65627Z" fill="#F9F9F9"/>
</svg>
