<svg width="18" height="18" viewBox="0 0 18 18" fill="none" xmlns="http://www.w3.org/2000/svg">
<path d="M15.8245 6.65627L9.52455 12.975C9.44955 13.05 9.36831 13.1032 9.28081 13.1347C9.19331 13.1662 9.09956 13.1817 8.99956 13.1812C8.89956 13.1812 8.80581 13.1657 8.71831 13.1347C8.63081 13.1037 8.54956 13.0505 8.47456 12.975L2.15585 6.65627C1.98085 6.48127 1.89335 6.26252 1.89335 6.00002C1.89335 5.73752 1.9871 5.51253 2.1746 5.32503C2.3621 5.13753 2.58085 5.04378 2.83085 5.04378C3.08084 5.04378 3.29959 5.13753 3.48709 5.32503L8.99956 10.8375L14.512 5.32503C14.687 5.15003 14.9028 5.06253 15.1593 5.06253C15.4158 5.06253 15.6375 5.15628 15.8245 5.34378C16.012 5.53127 16.1058 5.75002 16.1058 6.00002C16.1058 6.25002 16.012 6.46877 15.8245 6.65627Z" fill="#111111"/>
</svg>
