<svg width="11" height="19" viewBox="0 0 11 19" fill="none" xmlns="http://www.w3.org/2000/svg">
<g clip-path="url(#clip0_589_2166)">
<path d="M7.35311 8.70485C7.35311 8.70485 7.48565 8.57232 7.75072 8.30725C8.01579 8.04218 8.14832 7.53502 8.14832 6.78576C8.14832 6.0365 7.88325 5.3968 7.35311 4.86666C6.82298 4.33653 6.18328 4.07146 5.43402 4.07146C4.68476 4.07146 4.04506 4.33653 3.51492 4.86666C2.98479 5.3968 2.71972 6.0365 2.71972 6.78576C2.71972 7.53502 2.98479 8.17472 3.51492 8.70485C4.04506 9.23499 4.68476 9.50006 5.43402 9.50006C6.18328 9.50006 6.82298 9.23499 7.35311 8.70485ZM10.8626 6.78576C10.8626 7.55622 10.746 8.18885 10.5127 8.68365L6.65333 16.8902C6.54024 17.1234 6.37236 17.3072 6.1497 17.4415C5.92705 17.5758 5.68848 17.643 5.43402 17.643C5.17955 17.643 4.94099 17.5758 4.71833 17.4415C4.49568 17.3072 4.33133 17.1234 4.22531 16.8902L0.355306 8.68365C0.122046 8.18885 0.005416 7.55622 0.005416 6.78576C0.005416 5.28724 0.535553 4.00784 1.59583 2.94757C2.6561 1.88729 3.9355 1.35716 5.43402 1.35716C6.93254 1.35716 8.21194 1.88729 9.27221 2.94757C10.3325 4.00784 10.8626 5.28724 10.8626 6.78576Z" fill="#E62D2A"/>
</g>
<defs>
<clipPath id="clip0_589_2166">
<rect width="10.8086" height="18.8961" fill="white" transform="matrix(1.0055 0 0 -1.0055 0 19)"/>
</clipPath>
</defs>
</svg>
