<svg width="122" height="54" viewBox="0 0 122 54" fill="none" xmlns="http://www.w3.org/2000/svg">
<path d="M6.88656 33.7032L0.21769 27.0541C0.138535 26.9749 0.0823343 26.8892 0.0490889 26.7968C0.0158435 26.7045 -0.000515336 26.6055 1.23681e-05 26.5C1.23681e-05 26.3945 0.0166351 26.2955 0.0498804 26.2032C0.0831258 26.1108 0.139062 26.0251 0.21769 25.9459L6.88656 19.277C7.07125 19.0923 7.30212 19 7.57917 19C7.85621 19 8.09368 19.0989 8.29157 19.2968C8.48946 19.4947 8.5884 19.7256 8.5884 19.9894C8.5884 20.2533 8.48946 20.4842 8.29157 20.6821L2.47363 26.5L8.29157 32.3179C8.47627 32.5026 8.56861 32.7303 8.56861 33.0011C8.56861 33.2718 8.46967 33.5058 8.27178 33.7032C8.07389 33.9011 7.84302 34 7.57917 34C7.31532 34 7.08445 33.9011 6.88656 33.7032Z" fill="black"/>
</svg>
