<svg width="24" height="24" viewBox="0 0 24 24" fill="none" xmlns="http://www.w3.org/2000/svg">
<path d="M12 24C9.62663 24 7.30655 23.2962 5.33316 21.9776C3.35977 20.6591 1.8217 18.7849 0.913451 16.5922C0.00519953 14.3995 -0.232441 11.9867 0.230582 9.65892C0.693604 7.33115 1.83649 5.19295 3.51472 3.51472C5.19295 1.83649 7.33115 0.693604 9.65892 0.230582C11.9867 -0.232441 14.3995 0.00519953 16.5922 0.913451C18.7849 1.8217 20.6591 3.35977 21.9776 5.33316C23.2962 7.30655 24 9.62663 24 12C24 15.1826 22.7357 18.2348 20.4853 20.4853C18.2348 22.7357 15.1826 24 12 24ZM12 1.6C9.94308 1.6 7.93234 2.20995 6.22207 3.35272C4.5118 4.49549 3.17881 6.11974 2.39166 8.02009C1.60451 9.92045 1.39855 12.0115 1.79984 14.0289C2.20112 16.0463 3.19163 17.8994 4.64609 19.3539C6.10056 20.8084 7.95366 21.7989 9.97106 22.2002C11.9885 22.6015 14.0796 22.3955 15.9799 21.6083C17.8803 20.8212 19.5045 19.4882 20.6473 17.7779C21.7901 16.0677 22.4 14.0569 22.4 12C22.4 9.24175 21.3043 6.59647 19.3539 4.64609C17.4035 2.69572 14.7583 1.6 12 1.6Z" fill="#ED1C24"/>
<path d="M10.1353 16.8C10.0256 16.7997 9.91719 16.7768 9.81673 16.7327C9.71626 16.6887 9.62593 16.6245 9.55134 16.544L5.81534 12.544C5.68768 12.3866 5.62454 12.1866 5.63867 11.9844C5.65279 11.7822 5.74313 11.5929 5.89144 11.4548C6.03974 11.3166 6.23495 11.2399 6.43763 11.2402C6.64031 11.2404 6.83535 11.3176 6.98334 11.456L10.1353 14.824L17.0153 7.45604C17.0844 7.37085 17.1703 7.30078 17.2676 7.25017C17.3649 7.19956 17.4715 7.1695 17.581 7.16186C17.6904 7.15421 17.8002 7.16915 17.9036 7.20573C18.007 7.24232 18.1017 7.29978 18.182 7.37453C18.2623 7.44929 18.3263 7.53975 18.3701 7.6403C18.4139 7.74084 18.4366 7.84932 18.4367 7.959C18.4368 8.06868 18.4144 8.17721 18.3708 8.27785C18.3272 8.3785 18.2634 8.4691 18.1833 8.54404L10.7193 16.544C10.6447 16.6245 10.5544 16.6887 10.4539 16.7327C10.3535 16.7768 10.245 16.7997 10.1353 16.8Z" fill="#ED1C24"/>
</svg>
