<svg width="35" height="35" viewBox="0 0 35 35" fill="none" xmlns="http://www.w3.org/2000/svg">
<path d="M32.0117 7.25302C26.9941 3.90676 22.2516 2.25041 17.5141 2.18923C12.7166 2.13009 7.98435 3.60406 3.0447 6.70307C2.56088 7.00376 2.21422 7.48213 2.0791 8.03552C1.94399 8.58891 2.03119 9.17321 2.322 9.66303L15.6238 32.3255C15.8145 32.6541 16.0882 32.9269 16.4174 33.1165C16.7467 33.306 17.12 33.4058 17.5 33.4057H17.5109C17.889 33.4075 18.2609 33.3104 18.5899 33.1241C18.9189 32.9378 19.1934 32.6687 19.3863 32.3436L32.673 10.1987C32.9631 9.71694 33.0562 9.1419 32.933 8.59324C32.8098 8.04457 32.4798 7.56454 32.0117 7.25302ZM30.7973 9.07302L17.5103 31.2182L4.20729 8.55609C8.689 5.74419 12.9509 4.37509 17.227 4.37509C17.3133 4.37509 17.3996 4.37563 17.4859 4.37673C21.788 4.43223 26.1425 5.96848 30.798 9.07302H30.7973Z" fill="#ED1C24"/>
<path d="M15.2835 15.8243C15.2186 15.455 15.0456 15.1133 14.7865 14.8423C14.5274 14.5713 14.1937 14.3833 13.8277 14.302C13.4617 14.2207 13.0797 14.2497 12.7302 14.3854C12.3807 14.5212 12.0793 14.7575 11.8641 15.0645C11.6489 15.3716 11.5296 15.7355 11.5213 16.1104C11.5129 16.4852 11.6159 16.8541 11.8173 17.1704C12.0186 17.4867 12.3092 17.7362 12.6523 17.8874C12.9955 18.0385 13.3757 18.0845 13.745 18.0195C14.2401 17.9324 14.6803 17.6522 14.9688 17.2405C15.2574 16.8288 15.3706 16.3194 15.2835 15.8243Z" fill="#ED1C24"/>
<path d="M22.271 20.8365C23.0656 20.1548 23.1571 18.958 22.4754 18.1634C21.7937 17.3688 20.5969 17.2773 19.8023 17.959C19.0077 18.6407 18.9162 19.8374 19.5979 20.632C20.2796 21.4266 21.4764 21.5182 22.271 20.8365Z" fill="#ED1C24"/>
<path d="M14.6123 23.2641L16.0128 21.5837L19.294 24.318L17.8935 25.9986L14.6123 23.2641ZM17.116 13.1965L21.491 11.5559L22.2591 13.6041L17.8841 15.2448L17.116 13.1965Z" fill="#ED1C24"/>
<path d="M8.2373 12.4126C10.5129 10.9849 14.0168 9.2974 17.8635 9.2974C17.9198 9.2974 17.9761 9.29777 18.0326 9.2985C21.237 9.33951 24.1766 10.3239 27.2836 12.3961L28.4973 10.5761C25.0229 8.25923 21.7066 7.15816 18.0608 7.11113C13.6138 7.0561 9.63286 8.95499 7.07519 10.5596L8.2373 12.4126Z" fill="#ED1C24"/>
</svg>
