<svg width="16" height="15" viewBox="0 0 16 15" fill="none" xmlns="http://www.w3.org/2000/svg">
<path d="M7.27502 0.357886C7.51211 -0.119307 8.19284 -0.119305 8.42993 0.357887L10.3663 4.2551C10.4602 4.44407 10.6406 4.57514 10.8493 4.60604L15.1541 5.24331C15.6812 5.32134 15.8916 5.96875 15.511 6.3417L12.4029 9.38758C12.2522 9.53527 12.1833 9.74735 12.2184 9.95541L12.9426 14.2465C13.0313 14.7719 12.4806 15.172 12.0083 14.9253L8.15101 12.9106C7.96397 12.8129 7.74098 12.8129 7.55395 12.9106L3.69669 14.9253C3.22439 15.172 2.67367 14.7719 2.76234 14.2465L3.48653 9.95541C3.52165 9.74735 3.45274 9.53527 3.30203 9.38758L0.193922 6.3417C-0.186648 5.96875 0.0237078 5.32134 0.550811 5.24331L4.85564 4.60604C5.06438 4.57514 5.24479 4.44407 5.33867 4.2551L7.27502 0.357886Z" fill="#FEA500"/>
</svg>
