<svg width="37" height="35" viewBox="0 0 37 35" fill="none" xmlns="http://www.w3.org/2000/svg">
<path d="M3.88889 0C2.85749 0 1.86834 0.409721 1.13903 1.13903C0.409721 1.86834 0 2.85749 0 3.88889V31.1111C0 32.1425 0.409721 33.1317 1.13903 33.861C1.86834 34.5903 2.85749 35 3.88889 35H31.1111C32.1425 35 33.1317 34.5903 33.861 33.861C34.5903 33.1317 35 32.1425 35 31.1111V26.6778C35.5878 26.3384 36.0765 25.8512 36.4176 25.2645C36.7587 24.6778 36.9403 24.012 36.9444 23.3333V11.6667C36.9403 10.988 36.7587 10.3222 36.4176 9.73551C36.0765 9.14878 35.5878 8.66155 35 8.32222V3.88889C35 2.85749 34.5903 1.86834 33.861 1.13903C33.1317 0.409721 32.1425 0 31.1111 0H3.88889ZM3.88889 3.88889H31.1111V7.77778H19.4444C18.413 7.77778 17.4239 8.1875 16.6946 8.91681C15.9653 9.64611 15.5556 10.6353 15.5556 11.6667V23.3333C15.5556 24.3647 15.9653 25.3539 16.6946 26.0832C17.4239 26.8125 18.413 27.2222 19.4444 27.2222H31.1111V31.1111H3.88889V3.88889ZM19.4444 11.6667H33.0556V23.3333H19.4444V11.6667ZM25.2778 14.5833C24.5042 14.5833 23.7624 14.8906 23.2154 15.4376C22.6684 15.9846 22.3611 16.7265 22.3611 17.5C22.3611 18.2735 22.6684 19.0154 23.2154 19.5624C23.7624 20.1094 24.5042 20.4167 25.2778 20.4167C26.0513 20.4167 26.7932 20.1094 27.3402 19.5624C27.8872 19.0154 28.1944 18.2735 28.1944 17.5C28.1944 16.7265 27.8872 15.9846 27.3402 15.4376C26.7932 14.8906 26.0513 14.5833 25.2778 14.5833Z" fill="#ED1C24"/>
</svg>
