<svg width="80" height="63" viewBox="0 0 80 63" fill="none" xmlns="http://www.w3.org/2000/svg">
<g clip-path="url(#clip0_815_4047)">
<path d="M14.5417 61.9126V57.7944C14.5417 56.2154 13.5811 55.1861 11.9345 55.1861C11.1114 55.1861 10.2195 55.4606 9.60203 56.353C9.12203 55.5978 8.43609 55.1861 7.40703 55.1861C6.72079 55.1861 6.03516 55.3918 5.4861 56.1469V55.3233H4.04548V61.9126H5.4861V58.2747C5.4861 57.1081 6.1036 56.5587 7.06422 56.5587C8.02422 56.5587 8.50484 57.1765 8.50484 58.2747V61.9126H9.94546V58.2747C9.94546 57.1081 10.6311 56.5587 11.523 56.5587C12.4836 56.5587 12.9636 57.1765 12.9636 58.2747V61.9126H14.5417ZM35.8763 55.3233H33.5441V53.3328H32.1035V55.3233H30.8001V56.6272H32.1032V59.6476C32.1032 61.1578 32.7207 62.0499 34.3673 62.0499C34.9848 62.0499 35.6704 61.8441 36.151 61.5696L35.7391 60.3339C35.3276 60.6084 34.8476 60.6772 34.5044 60.6772C33.8185 60.6772 33.5441 60.2654 33.5441 59.5788V56.6272H35.8763V55.3233ZM48.0875 55.1857C47.2644 55.1857 46.7157 55.5979 46.3725 56.1469V55.3233H44.9319V61.9126H46.3725V58.2062C46.3725 57.1081 46.8525 56.4902 47.7444 56.4902C48.0188 56.4902 48.3619 56.559 48.6363 56.6275L49.0478 55.2548C48.7735 55.1861 48.3619 55.1861 48.0875 55.1861V55.1857ZM29.6338 55.8724C28.9476 55.3918 27.9873 55.1861 26.9582 55.1861C25.312 55.1861 24.2145 56.0096 24.2145 57.3138C24.2145 58.4122 25.0376 59.0298 26.4782 59.2358L27.1642 59.3046C27.9188 59.4415 28.3304 59.6476 28.3304 59.9909C28.3304 60.4712 27.7817 60.8145 26.821 60.8145C25.8607 60.8145 25.106 60.4712 24.6257 60.1282L23.9398 61.2263C24.6945 61.7753 25.7235 62.0499 26.7523 62.0499C28.6732 62.0499 29.771 61.1578 29.771 59.9221C29.771 58.7552 28.8791 58.1374 27.507 57.9316L26.821 57.8629C26.2035 57.7941 25.7235 57.6571 25.7235 57.2453C25.7235 56.7647 26.2035 56.4902 26.9582 56.4902C27.7817 56.4902 28.6048 56.8332 29.0163 57.0393L29.6338 55.8724ZM67.9134 55.1861C67.09 55.1861 66.5412 55.5979 66.1981 56.1469V55.3233H64.7575V61.9126H66.1981V58.2062C66.1981 57.1081 66.6784 56.4902 67.57 56.4902C67.8446 56.4902 68.1878 56.559 68.4621 56.6275L68.8737 55.2548C68.5993 55.1861 68.1878 55.1861 67.9134 55.1861ZM49.5281 58.618C49.5281 60.6084 50.9 62.0499 53.0269 62.0499C53.9872 62.0499 54.6731 61.8441 55.3591 61.2951L54.6731 60.1282C54.1244 60.54 53.5756 60.7457 52.9581 60.7457C51.7919 60.7457 50.9688 59.9221 50.9688 58.618C50.9688 57.3826 51.7919 56.5587 52.9581 56.4902C53.5756 56.4902 54.1244 56.696 54.6731 57.1081L55.3591 55.9412C54.6731 55.3918 53.9872 55.1861 53.0269 55.1861C50.9 55.1861 49.5281 56.6275 49.5281 58.618ZM62.8369 58.618V55.3233H61.3962V56.1469C60.9159 55.5294 60.23 55.1861 59.3381 55.1861C57.4859 55.1861 56.0453 56.6275 56.0453 58.618C56.0453 60.6084 57.4859 62.0499 59.3381 62.0499C60.2984 62.0499 60.9847 61.7069 61.3962 61.089V61.9126H62.8369V58.618ZM57.5544 58.618C57.5544 57.4511 58.309 56.4902 59.5437 56.4902C60.71 56.4902 61.5334 57.3826 61.5334 58.618C61.5334 59.7849 60.71 60.7457 59.5437 60.7457C58.309 60.6769 57.5544 59.7849 57.5544 58.618ZM40.3357 55.1861C38.4147 55.1861 37.0426 56.5587 37.0426 58.618C37.0426 60.6772 38.4144 62.0499 40.4041 62.0499C41.3644 62.0499 42.325 61.7753 43.0797 61.1578L42.3935 60.1282C41.8447 60.54 41.1588 60.8145 40.4729 60.8145C39.581 60.8145 38.6891 60.4027 38.4832 59.2355H43.3541V58.6868C43.4229 56.5587 42.1879 55.1861 40.3354 55.1861H40.3357ZM40.3357 56.4214C41.2272 56.4214 41.845 56.9708 41.9819 58.0004H38.5519C38.6891 57.1081 39.3066 56.4214 40.3357 56.4214ZM76.0768 58.618V52.715H74.6362V56.1469C74.1559 55.5294 73.4699 55.1861 72.5781 55.1861C70.7259 55.1861 69.2853 56.6275 69.2853 58.618C69.2853 60.6084 70.7259 62.0499 72.5781 62.0499C73.5387 62.0499 74.2246 61.7069 74.6362 61.089V61.9126H76.0768V58.618ZM70.7946 58.618C70.7946 57.4511 71.549 56.4902 72.784 56.4902C73.9503 56.4902 74.7734 57.3826 74.7734 58.618C74.7734 59.7849 73.9503 60.7457 72.784 60.7457C71.549 60.6769 70.7946 59.7849 70.7946 58.618ZM22.6364 58.618V55.3233H21.1957V56.1469C20.7154 55.5294 20.0295 55.1861 19.1376 55.1861C17.2854 55.1861 15.8448 56.6275 15.8448 58.618C15.8448 60.6084 17.2854 62.0499 19.1376 62.0499C20.0982 62.0499 20.7842 61.7069 21.1957 61.089V61.9126H22.6364V58.618ZM17.2854 58.618C17.2854 57.4511 18.0401 56.4902 19.2748 56.4902C20.4411 56.4902 21.2645 57.3826 21.2645 58.618C21.2645 59.7849 20.4411 60.7457 19.2748 60.7457C18.0401 60.6769 17.2854 59.7849 17.2854 58.618Z" fill="#111111"/>
<path d="M29.1556 5.28524H50.7649V44.1352H29.1556V5.28524Z" fill="#FF5F00"/>
<path d="M30.5277 24.7103C30.5277 16.8168 34.2321 9.81544 39.9258 5.28512C35.7414 1.99048 30.4593 0 24.6968 0C11.0447 0 0 11.0508 0 24.7103C0 38.3694 11.0447 49.4205 24.6965 49.4205C30.459 49.4205 35.7411 47.4301 39.9258 44.1351C34.2321 39.6736 30.5277 32.6037 30.5277 24.7103Z" fill="#EB001B"/>
<path d="M79.919 24.7103C79.919 38.3694 68.8743 49.4205 55.2225 49.4205C49.46 49.4205 44.1778 47.4301 39.9932 44.1351C45.7556 39.6051 49.3916 32.6037 49.3916 24.7103C49.3916 16.8168 45.6869 9.81544 39.9932 5.28512C44.1775 1.99048 49.46 0 55.2225 0C68.8743 0 79.9193 11.1196 79.9193 24.7103H79.919Z" fill="#F79E1B"/>
</g>
<defs>
<clipPath id="clip0_815_4047">
<rect width="79.8728" height="62.1233" fill="white" transform="scale(1.00159)"/>
</clipPath>
</defs>
</svg>
