<svg width="16" height="35" viewBox="0 0 16 35" fill="none" xmlns="http://www.w3.org/2000/svg">
<path d="M7.95455 0C5.82945 0 4.08022 1.53479 3.75995 3.5557C3.92209 3.54123 4.08479 3.53372 4.24758 3.5332C5.66518 3.5332 6.96239 4.05903 7.95455 4.92344C8.94694 4.05918 10.244 3.5332 11.6615 3.5332C11.826 3.5332 11.9882 3.54188 12.1491 3.5557C11.8289 1.53487 10.0797 0 7.95455 0ZM4.24758 4.91575C1.89349 4.91575 0 6.79895 0 9.14023C0 10.3136 0.475728 11.3719 1.24647 12.1358H6.90154C6.34688 11.2681 6.02383 10.2409 6.02383 9.14023C6.02383 7.95484 6.39793 6.85425 7.03321 5.94699C6.28857 5.30441 5.31588 4.91575 4.24758 4.91575ZM11.6615 4.91575C9.30744 4.91575 7.41395 6.79895 7.41395 9.14023C7.41395 10.3136 7.88968 11.3719 8.66042 12.1358H14.6626C15.4334 11.3719 15.9091 10.3136 15.9091 9.14023C15.9091 6.79895 14.0156 4.91575 11.6615 4.91575ZM4.48606 13.5183L7.95455 14.7728L11.423 13.5183H4.48606ZM1.60427 13.9474L2.4534 16.7623L5.9205 15.5084L1.60419 13.9474H1.60427ZM14.3048 13.9474L9.98852 15.5083L13.4557 16.7623L14.3048 13.9474ZM7.95455 16.244L3.63284 17.807L7.95455 19.7172L12.2763 17.807L7.95455 16.244ZM3.16213 19.1118L3.88707 21.5152L6.24316 20.4737L3.16213 19.1118ZM12.747 19.1118L9.66594 20.4737L12.022 21.5152L12.747 19.1118ZM7.95455 21.2302L4.64021 22.6953L7.95455 24.3434L11.2689 22.6953L7.95455 21.2301V21.2302ZM4.72153 24.2816L5.15941 25.7335L6.40017 25.1164L4.72153 24.2815V24.2816ZM11.1876 24.2816L9.50893 25.1164L10.7497 25.7334L11.1876 24.2816ZM7.95455 25.8894L5.56487 27.0778L5.91734 28.2463L7.95463 29.2594L9.99192 28.2463L10.3443 27.0778L7.95455 25.8893V25.8894ZM7.95455 30.8052L6.8542 31.3523L7.95455 35L9.0549 31.3522L7.95455 30.8051V30.8052Z" fill="#ED1C24"/>
</svg>
