<svg width="19" height="30" viewBox="0 0 19 30" fill="none" xmlns="http://www.w3.org/2000/svg">
<path d="M3.63352 0.593665L17.8693 13.8918C18.0383 14.0501 18.1582 14.2216 18.2292 14.4063C18.3002 14.591 18.3351 14.7889 18.334 15C18.334 15.2111 18.2985 15.409 18.2275 15.5937C18.1565 15.7784 18.0371 15.9499 17.8693 16.1082L3.63351 29.4459C3.23925 29.8153 2.74642 30 2.15502 30C1.56363 30 1.05671 29.8021 0.634287 29.4063C0.211861 29.0106 0.000646718 28.5488 0.000646764 28.0211C0.00064681 27.4934 0.211861 27.0317 0.634287 26.6359L13.0536 15L0.634289 3.36411C0.240025 2.99472 0.042891 2.53931 0.0428911 1.99789C0.0428911 1.45646 0.254105 0.988388 0.676532 0.593665C1.09896 0.197888 1.59179 -1.46365e-06 2.15502 -1.41441e-06C2.71826 -1.36517e-06 3.21109 0.197888 3.63352 0.593665Z" fill="#ED1C24"/>
</svg>
