<svg width="176" height="59" viewBox="0 0 176 59" fill="none" xmlns="http://www.w3.org/2000/svg">
<rect x="0.5" y="0.5" width="174.406" height="58" rx="7.47298" fill="#F9F9F9" stroke="#ED1C24"/>
<circle cx="146.703" cy="29.5001" r="7.97298" fill="#FFC700"/>
<path d="M32.9728 20.618C32.2899 21.4284 31.1973 22.0657 30.1047 21.9747C29.9681 20.8821 30.5053 19.7166 31.1336 19.0064C31.8165 18.1779 33.0092 17.5861 33.9835 17.5405C34.0927 18.6696 33.6466 19.7895 32.9728 20.618ZM33.9652 22.1841C32.381 22.093 31.0243 23.0855 30.2777 23.0855C29.5129 23.0855 28.3656 22.2296 27.1092 22.2569C25.4794 22.2843 23.9679 23.2039 23.1394 24.6698C21.4276 27.6107 22.6932 31.9538 24.3503 34.3484C25.1607 35.5321 26.1258 36.8341 27.4005 36.7886C28.6115 36.743 29.0849 36.0055 30.5418 36.0055C32.0077 36.0055 32.4356 36.7886 33.7103 36.7704C35.0305 36.743 35.8591 35.5867 36.6694 34.4031C37.589 33.0555 37.9715 31.7535 37.9897 31.6806C37.9624 31.6533 35.4403 30.6882 35.4129 27.7746C35.3856 25.3344 37.4069 24.1781 37.498 24.1053C36.3599 22.4117 34.5844 22.2296 33.9652 22.1841ZM43.1067 18.8881V36.6338H45.8655V30.5698H49.6805C53.1678 30.5698 55.6079 28.1752 55.6079 24.7153C55.6079 21.2554 53.2042 18.8881 49.7716 18.8881H43.1067ZM45.8655 21.2099H49.0432C51.4378 21.2099 52.8036 22.4846 52.8036 24.7244C52.8036 26.9642 51.4378 28.2572 49.0341 28.2572H45.8655V21.2099ZM60.6339 36.7704C62.3638 36.7704 63.9663 35.8963 64.6947 34.5032H64.7494V36.6338H67.2988V27.8019C67.2988 25.2434 65.2501 23.5863 62.0998 23.5863C59.1771 23.5863 57.0101 25.2616 56.9281 27.5561H59.4138C59.6232 26.4635 60.6339 25.7442 62.0179 25.7442C63.7023 25.7442 64.6492 26.5272 64.6492 27.9749V28.9582L61.2075 29.1677C58.0116 29.3589 56.2817 30.67 56.2817 32.9462C56.2908 35.2407 58.0754 36.7704 60.6339 36.7704ZM61.3805 34.6671C59.9146 34.6671 58.9768 33.9569 58.9768 32.8825C58.9768 31.7626 59.8782 31.1161 61.599 31.016L64.6583 30.8248V31.8263C64.6583 33.4834 63.247 34.6671 61.3805 34.6671ZM70.7132 41.4595C73.3992 41.4595 74.6648 40.4306 75.7665 37.3258L80.6012 23.7593H77.7969L74.5555 34.2392H74.5009L71.2595 23.7593H68.3823L73.0441 36.6793L72.7891 37.4623C72.3703 38.7917 71.6874 39.3107 70.4673 39.3107C70.2488 39.3107 69.83 39.2834 69.657 39.2651V41.3957C69.8209 41.4321 70.5037 41.4595 70.7132 41.4595Z" fill="black"/>
</svg>
