<svg width="111" height="111" viewBox="0 0 111 111" fill="none" xmlns="http://www.w3.org/2000/svg">
<g clip-path="url(#clip0_815_3063)">
<path d="M59.7229 95.2772H9.16112C8.5115 95.2772 7.84384 94.9344 7.15813 94.2487C6.47243 93.563 6.12957 92.8592 6.12957 92.1374V18.6225C6.12957 17.6841 6.45438 16.9443 7.104 16.4029C7.75362 15.8616 8.43932 15.5909 9.16112 15.5909H82.7843C83.6505 15.5909 84.3723 15.8796 84.9497 16.4571C85.5272 17.0345 85.8159 17.7563 85.8159 18.6225V71.0249C88.1978 72.2519 90.2549 73.9121 91.9872 76.0053V18.6225C91.9872 16.0962 91.085 13.9308 89.2805 12.1263C87.476 10.3218 85.3106 9.41956 82.7843 9.41956H9.16112C6.63483 9.41956 4.48749 10.3218 2.71909 12.1263C0.950686 13.9308 0.0664858 16.0962 0.0664858 18.6225V92.1374C0.0664858 93.7254 0.499564 95.2231 1.36572 96.6306C2.23187 98.0381 3.3687 99.1749 4.77621 100.041C6.18371 100.907 7.68144 101.34 9.26939 101.34H63.8372C62.1049 99.608 60.7335 97.587 59.7229 95.2772ZM74.8807 39.3019H15.1159C14.3941 39.3019 13.7806 39.0673 13.2754 38.5982C12.7701 38.129 12.5175 37.5516 12.5175 36.8659C12.5175 36.1802 12.7701 35.6208 13.2754 35.1877C13.7806 34.7546 14.3941 34.5381 15.1159 34.5381H74.8807C75.6025 34.5381 76.216 34.7546 76.7213 35.1877C77.2265 35.6208 77.4791 36.1802 77.4791 36.8659C77.4791 37.5516 77.2265 38.129 76.7213 38.5982C76.216 39.0673 75.6025 39.3019 74.8807 39.3019ZM62.1049 52.9439H15.1159C14.3941 52.9439 13.7806 52.7273 13.2754 52.2943C12.7701 51.8612 12.5175 51.3018 12.5175 50.6161C12.5175 49.9304 12.7701 49.3529 13.2754 48.8838C13.7806 48.4146 14.3941 48.18 15.1159 48.18H62.1049C62.7545 48.18 63.3319 48.4146 63.8372 48.8838C64.3424 49.3529 64.5951 49.9304 64.5951 50.6161C64.5951 51.3018 64.3424 51.8612 63.8372 52.2943C63.3319 52.7273 62.7545 52.9439 62.1049 52.9439ZM47.272 67.3437H15.1159C14.3941 67.3437 13.7806 67.1091 13.2754 66.64C12.7701 66.1708 12.5175 65.6114 12.5175 64.9618C12.5175 64.3122 12.7701 63.7528 13.2754 63.2836C13.7806 62.8144 14.3941 62.5799 15.1159 62.5799H47.272C47.9938 62.5799 48.6073 62.8144 49.1125 63.2836C49.6178 63.7528 49.8704 64.3122 49.8704 64.9618C49.8704 65.6114 49.6178 66.1708 49.1125 66.64C48.6073 67.1091 47.9938 67.3437 47.272 67.3437ZM33.0887 81.6353H15.1159C14.3941 81.6353 13.7806 81.4007 13.2754 80.9315C12.7701 80.4624 12.5175 79.903 12.5175 79.2534C12.5175 78.6037 12.7701 78.0443 13.2754 77.5752C13.7806 77.106 14.3941 76.8714 15.1159 76.8714H33.0887C33.8105 76.8714 34.424 77.106 34.9292 77.5752C35.4345 78.0443 35.6871 78.6037 35.6871 79.2534C35.6871 79.903 35.4345 80.4624 34.9292 80.9315C34.424 81.4007 33.8105 81.6353 33.0887 81.6353ZM78.7784 73.2985C75.6025 73.2985 72.6972 74.0203 70.0627 75.4639C67.4281 76.9075 65.3349 78.8564 63.7831 81.3105C62.2312 83.7646 61.4553 86.4533 61.4553 89.3765C61.4553 92.2998 62.2312 95.0066 63.7831 97.4968C65.3349 99.987 67.4281 101.954 70.0627 103.397C72.6972 104.841 75.6025 105.563 78.7784 105.563C81.9543 105.563 84.8595 104.841 87.4941 103.397C90.1286 101.954 92.2218 99.987 93.7737 97.4968C95.3255 95.0066 96.1015 92.2998 96.1015 89.3765C96.1015 86.4533 95.3255 83.7646 93.7737 81.3105C92.2218 78.8564 90.1286 76.9075 87.4941 75.4639C84.8595 74.0203 81.9543 73.2985 78.7784 73.2985ZM77.1543 81.0939C77.1543 80.6609 77.3167 80.3 77.6415 80.0112C77.9663 79.7225 78.3453 79.5782 78.7784 79.5782C79.2114 79.5782 79.5904 79.7225 79.9152 80.0112C80.24 80.3 80.4024 80.6609 80.4024 81.0939V93.5449C80.4024 93.978 80.24 94.3389 79.9152 94.6276C79.5904 94.9163 79.2114 95.0607 78.7784 95.0607C78.3453 95.0607 77.9663 94.9163 77.6415 94.6276C77.3167 94.3389 77.1543 93.978 77.1543 93.5449V81.0939ZM78.7784 99.608C78.2731 99.608 77.822 99.4276 77.425 99.0667C77.028 98.7058 76.8295 98.2727 76.8295 97.7674C76.8295 97.2622 77.028 96.8291 77.425 96.4682C77.822 96.1073 78.2731 95.9268 78.7784 95.9268C79.2836 95.9268 79.7347 96.1073 80.1317 96.4682C80.5287 96.8291 80.7272 97.2622 80.7272 97.7674C80.7272 98.2727 80.5287 98.7058 80.1317 99.0667C79.7347 99.4276 79.2836 99.608 78.7784 99.608Z" fill="#DCDEE5"/>
</g>
<defs>
<clipPath id="clip0_815_3063">
<rect width="110.868" height="110.735" fill="white" transform="matrix(1.0012 0 0 -1.0012 0 110.868)"/>
</clipPath>
</defs>
</svg>
