<svg width="24" height="24" viewBox="0 0 24 24" fill="none" xmlns="http://www.w3.org/2000/svg">
<g clip-path="url(#clip0_120_1264)">
<path d="M23.4394 12.2245C23.4394 11.2413 23.3596 10.5238 23.187 9.77966H11.959V14.2176H18.5495C18.4167 15.3205 17.6992 16.9815 16.1047 18.0976L16.0823 18.2462L19.6324 20.9964L19.8783 21.0209C22.1372 18.9347 23.4394 15.8653 23.4394 12.2245Z" fill="#4285F4"/>
<path d="M11.9586 23.9176C15.1874 23.9176 17.898 22.8545 19.878 21.0209L16.1043 18.0976C15.0944 18.8018 13.7391 19.2934 11.9586 19.2934C8.79619 19.2934 6.11212 17.2074 5.15533 14.324L5.01509 14.3359L1.32367 17.1927L1.27539 17.3269C3.24193 21.2334 7.28134 23.9176 11.9586 23.9176Z" fill="#34A853"/>
<path d="M5.15551 14.3239C4.90305 13.5798 4.75695 12.7825 4.75695 11.9587C4.75695 11.1349 4.90305 10.3376 5.14223 9.59354L5.13554 9.43507L1.39786 6.53235L1.27557 6.59052C0.465069 8.21162 0 10.032 0 11.9587C0 13.8854 0.465069 15.7058 1.27557 17.3269L5.15551 14.3239Z" fill="#FBBC05"/>
<path d="M11.9586 4.62403C14.2042 4.62403 15.7189 5.59402 16.5826 6.40461L19.9577 3.10928C17.8849 1.1826 15.1874 0 11.9586 0C7.28134 0 3.24193 2.68406 1.27539 6.59056L5.14205 9.59359C6.11212 6.7102 8.79619 4.62403 11.9586 4.62403Z" fill="#EB4335"/>
</g>
<defs>
<clipPath id="clip0_120_1264">
<rect width="23.4504" height="24" fill="white"/>
</clipPath>
</defs>
</svg>
