<svg width="18" height="18" viewBox="0 0 18 18" fill="none" xmlns="http://www.w3.org/2000/svg">
<path d="M15.8246 6.65619L9.52462 12.9749C9.44962 13.0499 9.36837 13.1032 9.28087 13.1347C9.19337 13.1662 9.09962 13.1817 8.99962 13.1812C8.89962 13.1812 8.80587 13.1657 8.71837 13.1347C8.63087 13.1037 8.54962 13.0504 8.47462 12.9749L2.15587 6.65619C1.98087 6.48119 1.89337 6.26244 1.89337 5.99994C1.89337 5.73744 1.98712 5.51244 2.17462 5.32494C2.36212 5.13744 2.58087 5.04369 2.83087 5.04369C3.08087 5.04369 3.29962 5.13744 3.48712 5.32494L8.99962 10.8374L14.5121 5.32494C14.6871 5.14994 14.9029 5.06244 15.1594 5.06244C15.4159 5.06244 15.6376 5.15619 15.8246 5.34369C16.0121 5.53119 16.1059 5.74994 16.1059 5.99994C16.1059 6.24994 16.0121 6.46869 15.8246 6.65619Z" fill="black"/>
</svg>
