<svg width="30" height="24" viewBox="0 0 30 24" fill="none" xmlns="http://www.w3.org/2000/svg">
<path d="M3 24C2.175 24 1.4685 23.706 0.880502 23.118C0.292502 22.53 -0.000997453 21.824 2.54669e-06 21V15.9375C2.54669e-06 15.6625 0.0875025 15.425 0.262502 15.225C0.437502 15.025 0.662502 14.9 0.937502 14.85C1.5375 14.65 2.0315 14.2875 2.4195 13.7625C2.8075 13.2375 3.001 12.65 3 12C3 11.35 2.806 10.7625 2.418 10.2375C2.03 9.7125 1.5365 9.35 0.937502 9.15C0.662502 9.1 0.437502 8.975 0.262502 8.775C0.0875025 8.575 2.54669e-06 8.3375 2.54669e-06 8.0625V3C2.54669e-06 2.175 0.294003 1.4685 0.882002 0.880502C1.47 0.292502 2.176 -0.000997453 3 2.54669e-06H27C27.825 2.54669e-06 28.5315 0.294002 29.1195 0.882002C29.7075 1.47 30.001 2.176 30 3V8.0625C30 8.3375 29.9125 8.575 29.7375 8.775C29.5625 8.975 29.3375 9.1 29.0625 9.15C28.4625 9.35 27.9685 9.7125 27.5805 10.2375C27.1925 10.7625 26.999 11.35 27 12C27 12.65 27.194 13.2375 27.582 13.7625C27.97 14.2875 28.4635 14.65 29.0625 14.85C29.3375 14.9 29.5625 15.025 29.7375 15.225C29.9125 15.425 30 15.6625 30 15.9375V21C30 21.825 29.706 22.5315 29.118 23.1195C28.53 23.7075 27.824 24.001 27 24H3ZM3 21H27V17.175C26.075 16.625 25.3435 15.894 24.8055 14.982C24.2675 14.07 23.999 13.076 24 12C24 10.925 24.2685 9.931 24.8055 9.018C25.3425 8.105 26.074 7.374 27 6.825V3H3V6.825C3.925 7.375 4.6565 8.1065 5.1945 9.0195C5.7325 9.9325 6.001 10.926 6 12C6 13.075 5.7315 14.069 5.1945 14.982C4.6575 15.895 3.926 16.626 3 17.175V21ZM15 19.5C15.425 19.5 15.7815 19.356 16.0695 19.068C16.3575 18.78 16.501 18.424 16.5 18C16.5 17.575 16.356 17.2185 16.068 16.9305C15.78 16.6425 15.424 16.499 15 16.5C14.575 16.5 14.2185 16.644 13.9305 16.932C13.6425 17.22 13.499 17.576 13.5 18C13.5 18.425 13.644 18.7815 13.932 19.0695C14.22 19.3575 14.576 19.501 15 19.5ZM15 13.5C15.425 13.5 15.7815 13.356 16.0695 13.068C16.3575 12.78 16.501 12.424 16.5 12C16.5 11.575 16.356 11.2185 16.068 10.9305C15.78 10.6425 15.424 10.499 15 10.5C14.575 10.5 14.2185 10.644 13.9305 10.932C13.6425 11.22 13.499 11.576 13.5 12C13.5 12.425 13.644 12.7815 13.932 13.0695C14.22 13.3575 14.576 13.501 15 13.5ZM15 7.5C15.425 7.5 15.7815 7.356 16.0695 7.068C16.3575 6.78 16.501 6.424 16.5 6C16.5 5.575 16.356 5.2185 16.068 4.9305C15.78 4.6425 15.424 4.499 15 4.5C14.575 4.5 14.2185 4.644 13.9305 4.932C13.6425 5.22 13.499 5.576 13.5 6C13.5 6.425 13.644 6.7815 13.932 7.0695C14.22 7.3575 14.576 7.501 15 7.5Z" fill="black"/>
</svg>
