<svg width="63" height="25" viewBox="0 0 63 25" fill="none" xmlns="http://www.w3.org/2000/svg">
<g clip-path="url(#clip0_353_779)">
<path d="M44.4763 6.74713C46.2012 6.74713 47.5342 7.2176 48.5535 8.15852C49.5728 9.09933 50.0431 10.3539 50.0431 11.922V19.4489H47.8478V17.7242H47.7693C46.8285 19.1356 45.4956 19.8412 43.9274 19.8412C42.5945 19.8412 41.4184 19.4491 40.4776 18.6651C39.6151 17.881 39.0662 16.7834 39.0662 15.6073C39.0662 14.3527 39.5368 13.3334 40.4776 12.5493C41.4184 11.7653 42.7513 11.4517 44.3195 11.4517C45.7307 11.4517 46.8285 11.6869 47.6909 12.2357V11.6869C47.6909 10.9551 47.4177 10.2233 46.8713 9.74651L46.75 9.64835C46.1228 9.09945 45.3387 8.78585 44.4763 8.78585C43.1434 8.78585 42.1241 9.33475 41.4184 10.4324L39.3799 9.17764C40.6343 7.53107 42.2809 6.74713 44.4763 6.74713ZM33.421 1.41553C34.8278 1.41553 36.1648 1.90511 37.2338 2.8181L37.4197 2.98354C38.5174 3.92447 39.0662 5.33586 39.0662 6.82556C39.0662 8.31526 38.5174 9.64823 37.4197 10.6675C36.3219 11.6868 34.9891 12.2356 33.421 12.2356L29.6575 12.1572V19.4491H27.3052V1.41541L33.421 1.41553ZM44.7898 13.3334C43.849 13.3334 43.0649 13.5686 42.4377 14.039C41.8104 14.4311 41.4968 14.9798 41.4968 15.6855C41.4968 16.3128 41.8105 16.8616 42.2809 17.1753C42.8298 17.5673 43.457 17.8025 44.0843 17.8025C44.9624 17.8025 45.8405 17.4609 46.5274 16.8417L46.6717 16.7048C47.4557 15.9992 47.8478 15.1367 47.8478 14.1958C47.1421 13.647 46.1228 13.3333 44.7899 13.3333L44.7898 13.3334ZM33.5778 3.61087H29.6575V9.88352H33.5778C34.4402 9.88352 35.3027 9.56992 35.8516 8.94271C37.106 7.76661 37.106 5.80645 35.93 4.63023L35.8516 4.55179C35.2243 3.92459 34.4402 3.53256 33.5777 3.61099L33.5778 3.61087ZM62.745 7.13916L54.9828 24.9375H52.6306L55.5316 18.7434L50.4351 7.2176H52.9442L56.6292 16.0775H56.7077L60.3144 7.2176H62.745V7.13916Z" fill="#5F6368"/>
<path d="M20.3276 10.5889C20.3276 9.88324 20.2491 9.17761 20.1707 8.47197H10.3701V12.4707H15.9369C15.7017 13.7251 14.9961 14.9012 13.8984 15.607V18.1944H17.2698C19.23 16.3911 20.3277 13.7251 20.3277 10.589L20.3276 10.5889Z" fill="#4285F4"/>
<path d="M10.3698 20.7037C13.1923 20.7037 15.5445 19.7627 17.2695 18.1946L13.8981 15.6072C12.9571 16.2344 11.781 16.6265 10.3698 16.6265C7.70384 16.6265 5.35164 14.8232 4.56757 12.3141H1.11783V14.9799C2.92113 18.5082 6.44943 20.7037 10.3698 20.7037Z" fill="#34A853"/>
<path d="M4.56711 12.3139C4.09677 11.0593 4.09677 9.64806 4.56711 8.3151V5.6493H1.11737C-0.372456 8.55039 -0.372456 12.0003 1.11737 14.9797L4.56711 12.3139Z" fill="#FBBC04"/>
<path d="M10.3699 4.08116C11.8596 4.08116 13.2708 4.63005 14.3686 5.64929L17.348 2.66989C15.4662 0.944891 12.9572 -0.0743468 10.4482 0.00396184C6.52783 0.00396184 2.92122 2.19942 1.19623 5.72772L4.6461 8.39352C5.35173 5.88446 7.70393 4.08116 10.3699 4.08116Z" fill="#EA4335"/>
</g>
<defs>
<clipPath id="clip0_353_779">
<rect width="62.1334" height="24.7563" fill="white" transform="scale(1.00984)"/>
</clipPath>
</defs>
</svg>
