<svg width="115" height="115" viewBox="0 0 115 115" fill="none" xmlns="http://www.w3.org/2000/svg">
<path d="M114.238 22.8683C113.933 22.5016 113.551 22.2066 113.118 22.0041C112.686 21.8016 112.215 21.6967 111.738 21.6967H23.3239L20.5196 6.23779C20.2019 4.48712 19.2795 2.90359 17.9134 1.76356C16.5474 0.623521 14.8244 -0.000637827 13.0451 4.89111e-07H3.2545C2.39135 4.89111e-07 1.56356 0.342884 0.953221 0.953221C0.342884 1.56356 0 2.39135 0 3.2545C0 4.11765 0.342884 4.94544 0.953221 5.55578C1.56356 6.16611 2.39135 6.509 3.2545 6.509H13.018C13.2749 6.50481 13.5249 6.59192 13.7236 6.75482C13.9222 6.91772 14.0566 7.14584 14.1028 7.39856L27.9399 83.4996C28.3788 85.9271 29.5616 88.1582 31.3245 89.8838C29.1957 91.5865 27.606 93.8697 26.7478 96.4571C25.8896 99.0445 25.7996 101.825 26.4888 104.463C27.178 107.1 28.6168 109.481 30.6312 111.318C32.6455 113.155 35.149 114.368 37.8386 114.812C40.5283 115.256 43.2889 114.91 45.7864 113.817C48.2838 112.725 50.411 110.932 51.9106 108.655C53.4102 106.379 54.2179 103.716 54.236 100.99C54.254 98.2645 53.4816 95.5917 52.0123 93.2956H80.3373C78.6508 95.9349 77.8908 99.0605 78.1773 102.18C78.4639 105.299 79.7805 108.233 81.9197 110.521C84.0588 112.809 86.8987 114.32 89.9915 114.815C93.0842 115.31 96.2538 114.762 99.0003 113.256C101.747 111.75 103.914 109.373 105.16 106.5C106.406 103.626 106.66 100.419 105.882 97.3854C105.103 94.3515 103.337 91.663 100.862 89.7439C98.3867 87.8248 95.3429 86.7843 92.2108 86.7866H39.6886C38.4183 86.7868 37.1882 86.3411 36.2128 85.5273C35.2374 84.7135 34.5786 83.5832 34.3512 82.3334L32.3985 71.599H96.6044C99.3991 71.5997 102.105 70.6195 104.251 68.8293C106.398 67.0391 107.847 64.5524 108.348 61.8029L114.938 25.5315C115.023 25.0635 115.005 24.5824 114.884 24.1223C114.763 23.6621 114.543 23.2341 114.238 22.8683ZM47.7326 100.889C47.7326 102.391 47.2873 103.86 46.4528 105.108C45.6184 106.357 44.4324 107.33 43.0448 107.905C41.6573 108.48 40.1304 108.63 38.6573 108.337C37.1843 108.044 35.8312 107.321 34.7692 106.259C33.7071 105.197 32.9839 103.844 32.6909 102.371C32.3979 100.898 32.5483 99.371 33.123 97.9834C33.6978 96.5958 34.6711 95.4098 35.9199 94.5754C37.1687 93.741 38.6369 93.2956 40.1388 93.2956C42.1528 93.2956 44.0843 94.0957 45.5085 95.5198C46.9326 96.9439 47.7326 98.8754 47.7326 100.889ZM99.8046 100.889C99.8046 102.391 99.3592 103.86 98.5248 105.108C97.6904 106.357 96.5044 107.33 95.1168 107.905C93.7292 108.48 92.2024 108.63 90.7293 108.337C89.2562 108.044 87.9032 107.321 86.8411 106.259C85.7791 105.197 85.0559 103.844 84.7629 102.371C84.4699 100.898 84.6202 99.371 85.195 97.9834C85.7698 96.5958 86.7431 95.4098 87.9919 94.5754C89.2407 93.741 90.7089 93.2956 92.2108 93.2956C94.2248 93.2956 96.1563 94.0957 97.5804 95.5198C99.0045 96.9439 99.8046 98.8754 99.8046 100.889ZM101.942 60.6367C101.714 61.8865 101.056 63.0169 100.08 63.8307C99.1047 64.6445 97.8747 65.0902 96.6044 65.09H31.2161L24.5118 28.2057H107.838L101.942 60.6367Z" fill="#ED1C24" fill-opacity="0.3"/>
</svg>
