<svg width="32" height="32" viewBox="0 0 32 32" fill="none" xmlns="http://www.w3.org/2000/svg">
<path d="M32 9.60397C32.0017 7.21127 31.1094 4.90421 29.4979 3.13517C27.8864 1.36612 25.6721 0.26268 23.289 0.0412172C20.9059 -0.180246 18.5261 0.496239 16.616 1.93803C14.706 3.37982 13.4036 5.48291 12.9642 7.83493C12.0538 10.778 11.2315 12.3807 10.7803 13.1277L6.75329 17.1536C6.60983 17.2971 6.50515 17.4748 6.44904 17.6698C6.39293 17.8648 6.38722 18.0709 6.43246 18.2687C6.47769 18.4666 6.57239 18.6497 6.70769 18.801C6.84298 18.9523 7.01446 19.0667 7.20607 19.1337L3.94064 22.3999C3.09883 22.4124 2.28243 22.69 1.60769 23.1934C0.93295 23.6968 0.43429 24.4002 0.182731 25.2034C-0.068829 26.0066 -0.0604605 26.8687 0.206645 27.6669C0.47375 28.4651 0.98597 29.1586 1.67035 29.6488C1.92954 29.8344 2.16473 30.0679 2.35032 30.3286C2.84104 31.0133 3.53551 31.5256 4.33467 31.7924C5.13383 32.0593 5.99686 32.067 6.80066 31.8145C7.60446 31.562 8.30798 31.0622 8.81087 30.3863C9.31376 29.7105 9.59034 28.8932 9.60114 28.0509L12.865 24.788C12.931 24.9806 13.045 25.1533 13.1963 25.2897C13.3476 25.4261 13.5311 25.5218 13.7295 25.5678C13.928 25.6137 14.1349 25.6083 14.3307 25.5522C14.5266 25.4961 14.7049 25.3911 14.8489 25.247L18.8871 21.2099C19.6438 20.7572 21.2517 19.9383 24.1908 19.0346C26.387 18.6172 28.3686 17.4468 29.7942 15.7253C31.2198 14.0037 31.9998 11.8389 32 9.60397ZM10.5339 19.2009H12.801V21.4594L7.81564 26.4418C7.61598 26.6482 7.45896 26.8918 7.35354 27.1589C7.24812 27.4259 7.19638 27.7111 7.20127 27.9981C7.20118 28.3368 7.09356 28.6667 6.89392 28.9403C6.69428 29.2139 6.41292 29.4171 6.09037 29.5207C5.76782 29.6242 5.42072 29.6227 5.09908 29.5163C4.77745 29.41 4.49787 29.2044 4.30062 28.929C3.95982 28.4551 3.5443 28.0397 3.07028 27.699C2.79487 27.5018 2.58917 27.2223 2.48282 26.9008C2.37647 26.5792 2.37496 26.2322 2.4785 25.9098C2.58205 25.5873 2.7853 25.306 3.05899 25.1064C3.33268 24.9068 3.66267 24.7992 4.00143 24.7991C4.47981 24.7991 5.07818 24.6552 5.54535 24.1881L10.5339 19.2009Z" fill="#ED1C24"/>
</svg>
