<svg width="145" height="145" viewBox="0 0 145 145" fill="none" xmlns="http://www.w3.org/2000/svg">
<path d="M62.1672 23.3205L10.9943 108.75C9.93921 110.577 9.38096 112.648 9.37505 114.758C9.36914 116.868 9.91579 118.943 10.9606 120.776C12.0054 122.609 13.512 124.136 15.3304 125.206C17.1489 126.276 19.2158 126.851 21.3255 126.875H123.671C125.781 126.851 127.848 126.276 129.666 125.206C131.485 124.136 132.991 122.609 134.036 120.776C135.081 118.943 135.628 116.868 135.622 114.758C135.616 112.648 135.058 110.577 134.003 108.75L82.8297 23.3205C81.7526 21.5449 80.2361 20.0768 78.4265 19.058C76.6169 18.0391 74.5752 17.5039 72.4984 17.5039C70.4217 17.5039 68.38 18.0391 66.5704 19.058C64.7608 20.0768 63.2442 21.5449 62.1672 23.3205V23.3205Z" stroke="#EE4B4B" stroke-width="9.0625" stroke-linecap="round" stroke-linejoin="round"/>
<path d="M72.5 54.375V78.5417" stroke="#EE4B4B" stroke-width="9.0625" stroke-linecap="round" stroke-linejoin="round"/>
<path d="M72.5 102.708H72.5602" stroke="#EE4B4B" stroke-width="9.0625" stroke-linecap="round" stroke-linejoin="round"/>
</svg>
