<svg width="11" height="12" viewBox="0 0 11 12" fill="none" xmlns="http://www.w3.org/2000/svg">
<path d="M4.66406 0.0234375C4.17188 0.09375 3.72852 0.283203 3.33398 0.591797C2.93945 0.900391 2.65234 1.28516 2.47266 1.74609C2.33984 2.07422 2.27344 2.40625 2.27344 2.74219C2.26562 3.07812 2.31641 3.40039 2.42578 3.70898C2.53516 4.01758 2.69922 4.30078 2.91797 4.55859C3.12891 4.81641 3.39062 5.03516 3.70312 5.21484C4.09375 5.44141 4.53516 5.55664 5.02734 5.56055C5.51953 5.56445 5.96484 5.45703 6.36328 5.23828C6.64453 5.08203 6.89062 4.88672 7.10156 4.65234C7.30469 4.42578 7.46875 4.17383 7.59375 3.89648C7.71875 3.61914 7.79297 3.32812 7.81641 3.02344C7.84766 2.71875 7.82422 2.41016 7.74609 2.09766C7.66797 1.78516 7.54297 1.5 7.37109 1.24219C7.19141 0.984375 6.98242 0.763672 6.74414 0.580078C6.50586 0.396484 6.23828 0.253906 5.94141 0.152344C5.64453 0.0507812 5.33594 0 5.01562 0C4.96094 0 4.89844 0.00195312 4.82812 0.00585938C4.75781 0.00976562 4.70312 0.015625 4.66406 0.0234375ZM4.41797 6.99609C3.87109 7.06641 3.3457 7.22461 2.8418 7.4707C2.33789 7.7168 1.88672 8.03906 1.48828 8.4375C1.04297 8.875 0.695312 9.37695 0.445312 9.94336C0.195312 10.5098 0.0546875 11.0977 0.0234375 11.707L0 12H10.1016L10.0781 11.707C10.0547 11.168 9.94141 10.6484 9.73828 10.1484C9.54297 9.65625 9.28125 9.20898 8.95312 8.80664C8.625 8.4043 8.23828 8.05859 7.79297 7.76953C7.34766 7.47266 6.85938 7.25781 6.32812 7.125C6.25781 7.10938 6.17578 7.08984 6.08203 7.06641C5.98828 7.04297 5.91016 7.02734 5.84766 7.01953C5.69141 6.99609 5.45703 6.98047 5.14453 6.97266C4.83203 6.96484 4.58984 6.97266 4.41797 6.99609Z" fill="#8897A2"/>
</svg>
