<svg width="18" height="18" viewBox="0 0 18 18" fill="none" xmlns="http://www.w3.org/2000/svg">
<path d="M15.8249 6.65598L9.52518 12.9744C9.45018 13.0494 9.36893 13.1027 9.28144 13.1342C9.19394 13.1657 9.1002 13.1812 9.0002 13.1807C8.90021 13.1807 8.80646 13.1652 8.71897 13.1342C8.63147 13.1032 8.55022 13.0499 8.47523 12.9744L2.15679 6.65598C1.9818 6.48099 1.8943 6.26225 1.8943 5.99976C1.8943 5.73728 1.98805 5.51229 2.17554 5.3248C2.36303 5.13731 2.58177 5.04356 2.83176 5.04356C3.08174 5.04356 3.30048 5.13731 3.48797 5.3248L9.0002 10.837L14.5124 5.3248C14.6874 5.14981 14.9032 5.06231 15.1596 5.06231C15.4161 5.06231 15.6379 5.15606 15.8249 5.34355C16.0124 5.53104 16.1061 5.74978 16.1061 5.99976C16.1061 6.24975 16.0124 6.46849 15.8249 6.65598Z" fill="#ED1C24"/>
</svg>
