<svg width="16" height="15" viewBox="0 0 16 15" fill="none" xmlns="http://www.w3.org/2000/svg">
<path d="M7.27527 0.357886C7.51236 -0.119307 8.19309 -0.119305 8.43018 0.357887L10.3665 4.2551C10.4604 4.44407 10.6408 4.57514 10.8496 4.60604L15.1544 5.24331C15.6815 5.32134 15.8918 5.96875 15.5113 6.3417L12.4032 9.38758C12.2525 9.53527 12.1836 9.74735 12.2187 9.95541L12.9429 14.2465C13.0315 14.7719 12.4808 15.172 12.0085 14.9253L8.15125 12.9106C7.96422 12.8129 7.74122 12.8129 7.55419 12.9106L3.69693 14.9253C3.22463 15.172 2.67392 14.7719 2.76259 14.2465L3.48678 9.95541C3.52189 9.74735 3.45298 9.53527 3.30228 9.38758L0.194169 6.3417C-0.186401 5.96875 0.023955 5.32134 0.551058 5.24331L4.85589 4.60604C5.06462 4.57514 5.24503 4.44407 5.33892 4.2551L7.27527 0.357886Z" fill="#525766" fill-opacity="0.7"/>
</svg>
