<svg width="24" height="24" viewBox="0 0 24 24" fill="none" xmlns="http://www.w3.org/2000/svg">
<path d="M12 24C9.62663 24 7.30655 23.2962 5.33316 21.9776C3.35977 20.6591 1.8217 18.7849 0.913451 16.5922C0.00519953 14.3995 -0.232441 11.9867 0.230582 9.65892C0.693604 7.33115 1.83649 5.19295 3.51472 3.51472C5.19295 1.83649 7.33115 0.693604 9.65892 0.230582C11.9867 -0.232441 14.3995 0.00519953 16.5922 0.913451C18.7849 1.8217 20.6591 3.35977 21.9776 5.33316C23.2962 7.30655 24 9.62663 24 12C24 15.1826 22.7357 18.2348 20.4853 20.4853C18.2348 22.7357 15.1826 24 12 24ZM12 1.6C9.94308 1.6 7.93234 2.20995 6.22207 3.35272C4.5118 4.49549 3.17881 6.11974 2.39166 8.02009C1.60451 9.92045 1.39855 12.0115 1.79984 14.0289C2.20112 16.0463 3.19163 17.8994 4.64609 19.3539C6.10056 20.8084 7.95366 21.7989 9.97106 22.2002C11.9885 22.6015 14.0796 22.3955 15.9799 21.6083C17.8803 20.8212 19.5045 19.4882 20.6473 17.7779C21.7901 16.0677 22.4 14.0569 22.4 12C22.4 9.24175 21.3043 6.59647 19.3539 4.64609C17.4035 2.69572 14.7583 1.6 12 1.6Z" fill="#111111"/>
<path d="M10.1363 16.8C10.0266 16.7997 9.91817 16.7768 9.8177 16.7327C9.71724 16.6887 9.6269 16.6245 9.55231 16.544L5.81631 12.544C5.68866 12.3866 5.62552 12.1866 5.63964 11.9844C5.65377 11.7822 5.74411 11.5929 5.89241 11.4548C6.04072 11.3166 6.23593 11.2399 6.43861 11.2402C6.64129 11.2404 6.83632 11.3176 6.98431 11.456L10.1363 14.824L17.0163 7.45604C17.0854 7.37085 17.1712 7.30078 17.2686 7.25017C17.3659 7.19956 17.4725 7.1695 17.5819 7.16186C17.6913 7.15421 17.8012 7.16915 17.9046 7.20573C18.008 7.24232 18.1027 7.29978 18.183 7.37453C18.2632 7.44929 18.3273 7.53975 18.3711 7.6403C18.4149 7.74084 18.4376 7.84932 18.4377 7.959C18.4378 8.06868 18.4154 8.17721 18.3718 8.27785C18.3282 8.3785 18.2644 8.4691 18.1843 8.54404L10.7203 16.544C10.6457 16.6245 10.5554 16.6887 10.4549 16.7327C10.3545 16.7768 10.246 16.7997 10.1363 16.8Z" fill="#111111"/>
</svg>
