<svg width="46" height="46" viewBox="0 0 46 46" fill="none" xmlns="http://www.w3.org/2000/svg">
<path d="M0 23C0 10.2961 10.2961 0 23 0C35.7039 0 46 10.2961 46 23C46 35.7039 35.7039 46 23 46C10.2961 46 0 35.7039 0 23ZM23 33.0625C24.1949 33.0625 25.1562 32.1012 25.1562 30.9062V25.1562H30.9062C32.1012 25.1562 33.0625 24.1949 33.0625 23C33.0625 21.8051 32.1012 20.8438 30.9062 20.8438H25.1562V15.0938C25.1562 13.8988 24.1949 12.9375 23 12.9375C21.8051 12.9375 20.8438 13.8988 20.8438 15.0938V20.8438H15.0938C13.8988 20.8438 12.9375 21.8051 12.9375 23C12.9375 24.1949 13.8988 25.1562 15.0938 25.1562H20.8438V30.9062C20.8438 32.1012 21.8051 33.0625 23 33.0625Z" fill="#F9F9F9"/>
</svg>
