<svg width="32" height="32" viewBox="0 0 32 32" fill="none" xmlns="http://www.w3.org/2000/svg">
<path d="M3.68453 13.4285C2.7262 13.4285 1.95239 12.6547 1.95239 11.6964C1.95239 11.5833 1.9643 11.4761 1.98811 11.3631C2.30358 10.1131 4.73811 1.99996 15.2857 1.99996C25.8333 1.99996 28.2679 10.1131 28.5833 11.3631C28.6131 11.4761 28.619 11.5833 28.619 11.6964C28.619 12.6547 27.8452 13.4285 26.8869 13.4285H3.68453ZM8.61906 7.71424C8.61906 7.19044 8.19049 6.76186 7.66668 6.76186C7.14287 6.76186 6.7143 7.19044 6.7143 7.71424C6.7143 8.23805 7.14287 8.66663 7.66668 8.66663C8.19049 8.66663 8.61906 8.23805 8.61906 7.71424ZM22.9048 8.66663C23.4286 8.66663 23.8571 8.23805 23.8571 7.71424C23.8571 7.19044 23.4286 6.76186 22.9048 6.76186C22.381 6.76186 21.9524 7.19044 21.9524 7.71424C21.9524 8.23805 22.381 8.66663 22.9048 8.66663ZM16.2381 5.80948C16.2381 5.28567 15.8095 4.8571 15.2857 4.8571C14.7619 4.8571 14.3333 5.28567 14.3333 5.80948C14.3333 6.33329 14.7619 6.76186 15.2857 6.76186C15.8095 6.76186 16.2381 6.33329 16.2381 5.80948ZM1.00001 18.1904C1.00001 16.6131 2.27977 15.3333 3.85715 15.3333H26.7143C28.2917 15.3333 29.5714 16.6131 29.5714 18.1904C29.5714 19.7678 28.2917 21.0476 26.7143 21.0476H3.85715C2.27977 21.0476 1.00001 19.7678 1.00001 18.1904ZM1.95239 23.9047C1.95239 23.3809 2.38096 22.9523 2.90477 22.9523H27.6667C28.1905 22.9523 28.619 23.3809 28.619 23.9047V24.8571C28.619 26.9583 26.9107 28.6666 24.8095 28.6666H5.76191C3.66073 28.6666 1.95239 26.9583 1.95239 24.8571V23.9047Z" fill="#F9F9F9"/>
</svg>
