<svg width="16" height="15" viewBox="0 0 16 15" fill="none" xmlns="http://www.w3.org/2000/svg">
<path d="M7.27551 0.357886C7.51261 -0.119307 8.19333 -0.119305 8.43043 0.357887L10.3668 4.2551C10.4607 4.44407 10.6411 4.57514 10.8498 4.60604L15.1546 5.24331C15.6817 5.32134 15.8921 5.96875 15.5115 6.3417L12.4034 9.38758C12.2527 9.53527 12.1838 9.74735 12.2189 9.95541L12.9431 14.2465C13.0318 14.7719 12.4811 15.172 12.0088 14.9253L8.1515 12.9106C7.96447 12.8129 7.74147 12.8129 7.55444 12.9106L3.69718 14.9253C3.22488 15.172 2.67416 14.7719 2.76284 14.2465L3.48703 9.95541C3.52214 9.74735 3.45323 9.53527 3.30252 9.38758L0.194417 6.3417C-0.186154 5.96875 0.0242022 5.32134 0.551305 5.24331L4.85614 4.60604C5.06487 4.57514 5.24528 4.44407 5.33917 4.2551L7.27551 0.357886Z" fill="#525766" fill-opacity="0.7"/>
</svg>
