<svg width="19" height="17" viewBox="0 0 19 17" fill="none" xmlns="http://www.w3.org/2000/svg">
<g clip-path="url(#clip0_589_2160)">
<path d="M4.01816 11.14C4.01816 11.14 4.09082 11.0673 4.23614 10.922C4.38145 10.7767 4.45411 10.4999 4.45411 10.0918C4.45411 9.68369 4.30879 9.33431 4.01816 9.04367C3.72753 8.75304 3.37815 8.60772 2.97002 8.60772C2.5619 8.60772 2.21252 8.75304 1.92188 9.04367C1.63125 9.33431 1.48593 9.68369 1.48593 10.0918C1.48593 10.4999 1.63125 10.8493 1.92188 11.14C2.21252 11.4306 2.5619 11.5759 2.97002 11.5759C3.37815 11.5759 3.72753 11.4306 4.01816 11.14ZM4.78803 7.12363H14.212L13.3865 3.81226C13.3741 3.76279 13.3308 3.70868 13.2566 3.64994C13.1824 3.59119 13.1175 3.56182 13.0618 3.56182H5.9382C5.88255 3.56182 5.81762 3.59119 5.74341 3.64994C5.66921 3.70868 5.62592 3.76279 5.61356 3.81226L4.78803 7.12363ZM17.0781 11.14C17.0781 11.14 17.1508 11.0673 17.2961 10.922C17.4414 10.7767 17.5141 10.4999 17.5141 10.0918C17.5141 9.68369 17.3688 9.33431 17.0781 9.04367C16.7875 8.75304 16.4381 8.60772 16.03 8.60772C15.6219 8.60772 15.2725 8.75304 14.9819 9.04367C14.6912 9.33431 14.5459 9.68369 14.5459 10.0918C14.5459 10.4999 14.6912 10.8493 14.9819 11.14C15.2725 11.4306 15.6219 11.5759 16.03 11.5759C16.4381 11.5759 16.7875 11.4306 17.0781 11.14ZM18.9982 9.20136V12.7632C18.9982 12.8497 18.9704 12.9209 18.9147 12.9765C18.8591 13.0322 18.7879 13.06 18.7014 13.06H17.8109V14.2473C17.8109 14.742 17.6378 15.1625 17.2915 15.5087C16.9452 15.855 16.5247 16.0282 16.03 16.0282C15.5353 16.0282 15.1148 15.855 14.7685 15.5087C14.4222 15.1625 14.2491 14.742 14.2491 14.2473V13.06H4.75093V14.2473C4.75093 14.742 4.57779 15.1625 4.2315 15.5087C3.88521 15.855 3.46472 16.0282 2.97002 16.0282C2.47533 16.0282 2.05483 15.855 1.70855 15.5087C1.36226 15.1625 1.18911 14.742 1.18911 14.2473V13.06H0.298661C0.212089 13.06 0.140976 13.0322 0.085323 12.9765C0.0296697 12.9209 0.00184298 12.8497 0.00184298 12.7632V9.20136C0.00184298 8.62627 0.204359 8.13622 0.609392 7.73118C1.01442 7.32615 1.50448 7.12363 2.07957 7.12363H2.33928L3.31322 3.23717C3.45544 2.65591 3.777 2.16894 4.27788 1.77627C4.77876 1.38361 5.3322 1.18728 5.9382 1.18728H13.0618C13.6678 1.18728 14.2213 1.38361 14.7222 1.77627C15.223 2.16894 15.5446 2.65591 15.6868 3.23717L16.6607 7.12363H16.9205C17.4955 7.12363 17.9856 7.32615 18.3906 7.73118C18.7957 8.13622 18.9982 8.62627 18.9982 9.20136Z" fill="black"/>
</g>
<defs>
<clipPath id="clip0_589_2160">
<rect width="18.7197" height="16.3766" fill="white" transform="matrix(1.01497 0 0 -1.01497 0 16.6219)"/>
</clipPath>
</defs>
</svg>
