<svg width="227" height="21" viewBox="0 0 227 21" fill="none" xmlns="http://www.w3.org/2000/svg">
<path d="M8.21421 13.0611H2.78909L1.25849 15.8842H0L6.4115 4.14962H7.75503L9.99991 15.8842H8.74141L8.21421 13.0611ZM8.02713 12.1087L6.81966 5.6292L3.29929 12.1087H8.02713Z" fill="#F3F3F3"/>
<path d="M12.1826 11.2244C12.3527 10.272 12.6928 9.43869 13.203 8.72441C13.7132 7.99879 14.3424 7.44324 15.0907 7.05776C15.839 6.66093 16.6383 6.46252 17.4887 6.46252C18.305 6.46252 19.0023 6.66093 19.5805 7.05776C20.1701 7.45458 20.5669 7.97045 20.771 8.60536L21.7063 3.29929H22.8968L20.6689 15.8842H19.4785L19.8526 13.8094C19.4444 14.4556 18.8832 14.9885 18.1689 15.408C17.4547 15.8162 16.661 16.0203 15.788 16.0203C14.6656 16.0203 13.7642 15.6858 13.084 15.0169C12.415 14.3366 12.0806 13.4239 12.0806 12.2788C12.0806 11.95 12.1146 11.5985 12.1826 11.2244ZM20.2948 11.2414C20.3515 10.9239 20.3798 10.6405 20.3798 10.3911C20.3798 9.50671 20.1134 8.80377 19.5805 8.28223C19.0476 7.7607 18.356 7.49993 17.5057 7.49993C16.8481 7.49993 16.2302 7.64732 15.652 7.9421C15.0851 8.23688 14.6032 8.66772 14.2064 9.23461C13.8096 9.79016 13.5431 10.4534 13.4071 11.2244C13.3504 11.5645 13.322 11.8536 13.322 12.0917C13.322 12.9874 13.5828 13.696 14.1044 14.2176C14.6372 14.7278 15.3288 14.9829 16.1792 14.9829C16.8141 14.9829 17.4206 14.8298 17.9989 14.5237C18.5884 14.2176 19.0816 13.781 19.4785 13.2142C19.8866 12.6473 20.1587 11.9897 20.2948 11.2414Z" fill="#F3F3F3"/>
<path d="M23.6588 11.2244C23.8288 10.272 24.169 9.43869 24.6792 8.72441C25.1894 7.99879 25.8186 7.44324 26.5669 7.05776C27.3152 6.66093 28.1145 6.46252 28.9648 6.46252C29.7812 6.46252 30.4784 6.66093 31.0567 7.05776C31.6462 7.45458 32.043 7.97045 32.2471 8.60536L33.1825 3.29929H34.3729L32.1451 15.8842H30.9546L31.3288 13.8094C30.9206 14.4556 30.3594 14.9885 29.6451 15.408C28.9308 15.8162 28.1372 16.0203 27.2642 16.0203C26.1417 16.0203 25.2404 15.6858 24.5601 15.0169C23.8912 14.3366 23.5567 13.4239 23.5567 12.2788C23.5567 11.95 23.5907 11.5985 23.6588 11.2244ZM31.7709 11.2414C31.8276 10.9239 31.856 10.6405 31.856 10.3911C31.856 9.50671 31.5895 8.80377 31.0567 8.28223C30.5238 7.7607 29.8322 7.49993 28.9818 7.49993C28.3243 7.49993 27.7063 7.64732 27.1281 7.9421C26.5612 8.23688 26.0794 8.66772 25.6826 9.23461C25.2857 9.79016 25.0193 10.4534 24.8832 11.2244C24.8266 11.5645 24.7982 11.8536 24.7982 12.0917C24.7982 12.9874 25.059 13.696 25.5805 14.2176C26.1134 14.7278 26.805 14.9829 27.6553 14.9829C28.2902 14.9829 28.8968 14.8298 29.475 14.5237C30.0646 14.2176 30.5578 13.781 30.9546 13.2142C31.3628 12.6473 31.6349 11.9897 31.7709 11.2414Z" fill="#F3F3F3"/>
<path d="M40.1506 11.2244C40.3206 10.272 40.6608 9.43869 41.1709 8.72441C41.6811 7.99879 42.3047 7.44324 43.0417 7.05776C43.79 6.66093 44.5893 6.46252 45.4396 6.46252C46.324 6.46252 47.0496 6.6666 47.6165 7.07476C48.1834 7.48292 48.5518 8.00446 48.7219 8.63937L49.079 6.59858H50.2695L48.6369 15.8842H47.4464L47.8035 13.8264C47.4181 14.4613 46.8625 14.9885 46.1369 15.408C45.4226 15.8162 44.6233 16.0203 43.739 16.0203C43.002 16.0203 42.3557 15.8672 41.8002 15.5611C41.2446 15.255 40.8138 14.8241 40.5077 14.2686C40.2016 13.7017 40.0485 13.0384 40.0485 12.2788C40.0485 11.95 40.0825 11.5985 40.1506 11.2244ZM48.2627 11.2414C48.3194 10.9239 48.3478 10.6405 48.3478 10.3911C48.3478 9.50671 48.0813 8.80377 47.5484 8.28223C47.0156 7.7607 46.324 7.49993 45.4736 7.49993C44.816 7.49993 44.1981 7.64732 43.6199 7.9421C43.053 8.23688 42.5712 8.66772 42.1743 9.23461C41.7775 9.79016 41.5111 10.4534 41.375 11.2244C41.3183 11.5645 41.29 11.8536 41.29 12.0917C41.29 12.9874 41.5508 13.696 42.0723 14.2176C42.6052 14.7278 43.2968 14.9829 44.1471 14.9829C44.782 14.9829 45.3886 14.8298 45.9668 14.5237C46.5564 14.2176 47.0496 13.781 47.4464 13.2142C47.8546 12.6473 48.1267 11.9897 48.2627 11.2414Z" fill="#F3F3F3"/>
<path d="M56.6423 11.2414C56.8124 10.2777 57.1525 9.43869 57.6627 8.72441C58.1843 7.99879 58.8192 7.44324 59.5675 7.05776C60.3158 6.66093 61.1264 6.46252 61.9994 6.46252C63.1445 6.46252 64.0346 6.74597 64.6695 7.31286C65.3157 7.87974 65.6615 8.65071 65.7069 9.62576H64.4314C64.3974 8.95683 64.1479 8.43529 63.6831 8.06115C63.2296 7.67566 62.6117 7.48292 61.8294 7.48292C60.8657 7.48292 60.0153 7.81172 59.2784 8.46931C58.5528 9.11556 58.0822 10.0396 57.8668 11.2414C57.8101 11.5248 57.7818 11.848 57.7818 12.2108C57.7818 13.1178 58.0256 13.8151 58.5131 14.3026C59.0119 14.7788 59.6695 15.0169 60.4858 15.0169C61.2795 15.0169 61.9711 14.8298 62.5607 14.4556C63.1502 14.0702 63.5867 13.5373 63.8702 12.857H65.1457C64.7602 13.8094 64.1423 14.5747 63.2919 15.1529C62.4416 15.7311 61.4496 16.0203 60.3158 16.0203C59.1707 16.0203 58.2523 15.6915 57.5607 15.0339C56.8804 14.3763 56.5403 13.4749 56.5403 12.3298C56.5403 11.9783 56.5743 11.6155 56.6423 11.2414Z" fill="#F3F3F3"/>
<path d="M70.8817 16.0203C70.1107 16.0203 69.4304 15.8672 68.8409 15.5611C68.2513 15.2436 67.7921 14.8014 67.4634 14.2346C67.1459 13.6563 66.9872 12.9817 66.9872 12.2108C66.9872 11.1677 67.2253 10.2097 67.7014 9.33665C68.1776 8.4523 68.8409 7.75503 69.6912 7.24483C70.5416 6.72329 71.4883 6.46252 72.5313 6.46252C73.3023 6.46252 73.9826 6.62125 74.5721 6.93871C75.1617 7.24483 75.6209 7.687 75.9497 8.26523C76.2785 8.83211 76.4429 9.50104 76.4429 10.272C76.4429 11.3264 76.1991 12.2901 75.7116 13.1631C75.2241 14.0361 74.5551 14.7334 73.7048 15.255C72.8658 15.7652 71.9248 16.0203 70.8817 16.0203ZM71.0177 15.0169C71.8227 15.0169 72.5427 14.8014 73.1776 14.3706C73.8238 13.9398 74.3227 13.3672 74.6742 12.6529C75.037 11.9387 75.2184 11.1677 75.2184 10.34C75.2184 9.41034 74.9463 8.70173 74.4021 8.21421C73.8692 7.72668 73.1889 7.48292 72.3613 7.48292C71.5563 7.48292 70.8363 7.69834 70.2014 8.12917C69.5778 8.56001 69.0903 9.13257 68.7388 9.84684C68.3874 10.5611 68.2116 11.3321 68.2116 12.1597C68.2116 13.0781 68.4781 13.7867 69.011 14.2856C69.5438 14.7731 70.2128 15.0169 71.0177 15.0169Z" fill="#F3F3F3"/>
<path d="M90.4496 6.42851C91.3793 6.42851 92.1219 6.68361 92.6774 7.19381C93.2443 7.70401 93.5278 8.4523 93.5278 9.43869C93.5278 9.7448 93.4937 10.0793 93.4257 10.4421L92.4563 15.8842H91.2829L92.2353 10.5781C92.292 10.238 92.3203 9.95455 92.3203 9.7278C92.3203 8.99084 92.1219 8.42962 91.7251 8.04414C91.3282 7.65866 90.767 7.46591 90.0414 7.46591C89.2364 7.46591 88.5278 7.72101 87.9156 8.23121C87.3147 8.74141 86.8952 9.47837 86.6571 10.4421L85.6707 15.8842H84.4972L85.4496 10.5781C85.5063 10.238 85.5346 9.95455 85.5346 9.7278C85.5346 8.99084 85.3362 8.42962 84.9394 8.04414C84.5426 7.65866 83.987 7.46591 83.2728 7.46591C82.4111 7.46591 81.6685 7.74936 81.0449 8.31625C80.4213 8.8718 80.0075 9.67678 79.8034 10.7312L78.902 15.8842H77.7116L79.3442 6.59858H80.5347L80.2456 8.21421C80.6311 7.63598 81.1243 7.19381 81.7251 6.88769C82.3374 6.58157 82.9836 6.42851 83.6639 6.42851C84.4689 6.42851 85.1378 6.62125 85.6707 7.00674C86.2036 7.39222 86.538 7.95911 86.6741 8.7074C87.0482 7.97045 87.5754 7.40923 88.2557 7.02374C88.936 6.62692 89.6673 6.42851 90.4496 6.42851Z" fill="#F3F3F3"/>
<path d="M107.838 6.42851C108.768 6.42851 109.511 6.68361 110.066 7.19381C110.633 7.70401 110.916 8.4523 110.916 9.43869C110.916 9.7448 110.882 10.0793 110.814 10.4421L109.845 15.8842H108.672L109.624 10.5781C109.681 10.238 109.709 9.95455 109.709 9.7278C109.709 8.99084 109.511 8.42962 109.114 8.04414C108.717 7.65866 108.156 7.46591 107.43 7.46591C106.625 7.46591 105.916 7.72101 105.304 8.23121C104.703 8.74141 104.284 9.47837 104.046 10.4421L103.059 15.8842H101.886L102.838 10.5781C102.895 10.238 102.923 9.95455 102.923 9.7278C102.923 8.99084 102.725 8.42962 102.328 8.04414C101.931 7.65866 101.376 7.46591 100.661 7.46591C99.7997 7.46591 99.0571 7.74936 98.4335 8.31625C97.8099 8.8718 97.3961 9.67678 97.192 10.7312L96.2907 15.8842H95.1002L96.7329 6.59858H97.9233L97.6342 8.21421C98.0197 7.63598 98.5129 7.19381 99.1138 6.88769C99.726 6.58157 100.372 6.42851 101.053 6.42851C101.858 6.42851 102.526 6.62125 103.059 7.00674C103.592 7.39222 103.927 7.95911 104.063 8.7074C104.437 7.97045 104.964 7.40923 105.644 7.02374C106.325 6.62692 107.056 6.42851 107.838 6.42851Z" fill="#F3F3F3"/>
<path d="M118.169 6.46252C118.951 6.46252 119.62 6.61558 120.176 6.9217C120.731 7.21648 121.151 7.62464 121.434 8.14618C121.729 8.66772 121.877 9.26295 121.877 9.93188C121.877 10.238 121.854 10.5101 121.808 10.7482C121.74 11.0883 121.672 11.3944 121.604 11.6666H113.9C113.866 11.882 113.849 12.0861 113.849 12.2788C113.849 13.1518 114.11 13.8264 114.632 14.3026C115.165 14.7788 115.839 15.0169 116.655 15.0169C117.438 15.0169 118.124 14.8298 118.713 14.4556C119.303 14.0815 119.734 13.577 120.006 12.9421H121.281C120.896 13.8491 120.278 14.5917 119.428 15.1699C118.589 15.7368 117.608 16.0203 116.485 16.0203C115.329 16.0203 114.399 15.6915 113.696 15.0339C113.005 14.3649 112.659 13.4579 112.659 12.3128C112.659 11.9727 112.693 11.6155 112.761 11.2414C112.931 10.2777 113.271 9.43302 113.781 8.7074C114.303 7.98178 114.943 7.42623 115.703 7.04075C116.463 6.65527 117.285 6.46252 118.169 6.46252ZM120.584 10.7822C120.641 10.4648 120.669 10.1983 120.669 9.9829C120.669 9.17792 120.414 8.56001 119.904 8.12917C119.394 7.69834 118.742 7.48292 117.948 7.48292C117.37 7.48292 116.814 7.60764 116.281 7.85707C115.748 8.1065 115.284 8.48064 114.887 8.97951C114.49 9.47837 114.218 10.0793 114.07 10.7822H120.584Z" fill="#F3F3F3"/>
<path d="M129.106 6.42851C130.058 6.42851 130.818 6.68928 131.384 7.21082C131.963 7.72102 132.252 8.46931 132.252 9.45569C132.252 9.8185 132.223 10.1473 132.167 10.4421L131.197 15.8842H130.024L130.959 10.5781C131.005 10.3174 131.027 10.0396 131.027 9.7448C131.027 8.99651 130.823 8.42962 130.415 8.04414C130.007 7.65866 129.434 7.46591 128.697 7.46591C127.802 7.46591 127.036 7.74936 126.401 8.31625C125.767 8.88314 125.353 9.71646 125.16 10.8162V10.7652L124.259 15.8842H123.068L124.701 6.59858H125.891L125.602 8.1972C125.999 7.63031 126.504 7.19381 127.116 6.88769C127.728 6.58157 128.391 6.42851 129.106 6.42851Z" fill="#F3F3F3"/>
<path d="M135.803 13.3672C135.769 13.5713 135.752 13.747 135.752 13.8944C135.752 14.2572 135.848 14.5123 136.041 14.6597C136.245 14.7958 136.574 14.8638 137.027 14.8638H138.116L137.929 15.8842H136.653C135.95 15.8842 135.423 15.7482 135.072 15.476C134.72 15.2039 134.544 14.7561 134.544 14.1325C134.544 13.8831 134.567 13.628 134.612 13.3672L135.633 7.60197H134.34L134.527 6.59858H135.82L136.228 4.26867H137.419L137.01 6.59858H139.578L139.391 7.60197H136.823L135.803 13.3672Z" fill="#F3F3F3"/>
<path d="M148.071 19.0474C147.425 18.2538 146.92 17.2901 146.557 16.1563C146.206 15.0339 146.03 13.7981 146.03 12.4489C146.03 10.9069 146.251 9.35932 146.693 7.80605C147.147 6.24144 147.793 4.78453 148.632 3.43534C149.471 2.08615 150.463 0.941034 151.608 0H152.85L152.833 0.119046C151.688 1.08276 150.69 2.2222 149.84 3.53738C148.989 4.84122 148.337 6.24144 147.884 7.73802C147.43 9.23461 147.204 10.7312 147.204 12.2278C147.204 13.5203 147.379 14.7391 147.731 15.8842C148.094 17.018 148.627 18.0327 149.329 18.9284L149.312 19.0474H148.071Z" fill="#F3F3F3"/>
<path d="M156.131 16.0203C155.36 16.0203 154.68 15.8672 154.09 15.5611C153.5 15.2436 153.041 14.8014 152.712 14.2346C152.395 13.6563 152.236 12.9817 152.236 12.2108C152.236 11.1677 152.474 10.2097 152.951 9.33665C153.427 8.4523 154.09 7.75503 154.94 7.24483C155.791 6.72329 156.737 6.46252 157.78 6.46252C158.551 6.46252 159.232 6.62125 159.821 6.93871C160.411 7.24483 160.87 7.687 161.199 8.26523C161.528 8.83211 161.692 9.50104 161.692 10.272C161.692 11.3264 161.448 12.2901 160.961 13.1631C160.473 14.0361 159.804 14.7334 158.954 15.255C158.115 15.7652 157.174 16.0203 156.131 16.0203ZM156.267 15.0169C157.072 15.0169 157.792 14.8014 158.427 14.3706C159.073 13.9398 159.572 13.3672 159.923 12.6529C160.286 11.9387 160.467 11.1677 160.467 10.34C160.467 9.41034 160.195 8.70173 159.651 8.21421C159.118 7.72668 158.438 7.48292 157.61 7.48292C156.805 7.48292 156.085 7.69834 155.451 8.12917C154.827 8.56001 154.339 9.13257 153.988 9.84684C153.636 10.5611 153.461 11.3321 153.461 12.1597C153.461 13.0781 153.727 13.7867 154.26 14.2856C154.793 14.7731 155.462 15.0169 156.267 15.0169Z" fill="#F3F3F3"/>
<path d="M165.427 8.63937C165.812 8.0158 166.362 7.49993 167.076 7.09177C167.802 6.67227 168.601 6.46252 169.474 6.46252C170.597 6.46252 171.492 6.79699 172.161 7.46591C172.842 8.12351 173.182 9.02486 173.182 10.17C173.182 10.4988 173.148 10.8502 173.08 11.2244C172.91 12.1768 172.569 13.0158 172.059 13.7414C171.549 14.467 170.92 15.0282 170.172 15.425C169.435 15.8218 168.641 16.0203 167.791 16.0203C166.918 16.0203 166.198 15.8162 165.631 15.408C165.064 14.9885 164.684 14.467 164.491 13.8434L163.369 20.2719H162.178L164.593 6.59858H165.784L165.427 8.63937ZM171.872 11.2244C171.929 10.8842 171.957 10.5951 171.957 10.357C171.957 9.46136 171.691 8.76409 171.158 8.26523C170.636 7.75503 169.945 7.49993 169.083 7.49993C168.448 7.49993 167.842 7.65299 167.263 7.95911C166.685 8.26523 166.192 8.70173 165.784 9.26862C165.376 9.83551 165.104 10.4931 164.967 11.2414C164.911 11.5588 164.882 11.8423 164.882 12.0917C164.882 12.9761 165.149 13.679 165.682 14.2005C166.215 14.7221 166.906 14.9829 167.757 14.9829C168.414 14.9829 169.026 14.8355 169.593 14.5407C170.172 14.2346 170.659 13.7981 171.056 13.2312C171.464 12.6529 171.736 11.984 171.872 11.2244Z" fill="#F3F3F3"/>
<path d="M176.41 13.3672C176.376 13.5713 176.359 13.747 176.359 13.8944C176.359 14.2572 176.455 14.5123 176.648 14.6597C176.852 14.7958 177.181 14.8638 177.634 14.8638H178.723L178.535 15.8842H177.26C176.557 15.8842 176.03 15.7482 175.678 15.476C175.327 15.2039 175.151 14.7561 175.151 14.1325C175.151 13.8831 175.174 13.628 175.219 13.3672L176.24 7.60197H174.947L175.134 6.59858H176.427L176.835 4.26867H178.025L177.617 6.59858H180.185L179.998 7.60197H177.43L176.41 13.3672Z" fill="#F3F3F3"/>
<path d="M183.05 4.84689C182.834 4.84689 182.659 4.78453 182.523 4.65982C182.387 4.52377 182.319 4.34803 182.319 4.13261C182.319 3.83783 182.421 3.59407 182.625 3.40133C182.829 3.19725 183.072 3.09521 183.356 3.09521C183.571 3.09521 183.741 3.15757 183.866 3.28228C184.002 3.407 184.07 3.57139 184.07 3.77547C184.07 4.07026 183.968 4.32536 183.764 4.54077C183.56 4.74485 183.322 4.84689 183.05 4.84689ZM183.322 6.59858L181.689 15.8842H180.499L182.131 6.59858H183.322Z" fill="#F3F3F3"/>
<path d="M188.467 16.0203C187.696 16.0203 187.015 15.8672 186.426 15.5611C185.836 15.2436 185.377 14.8014 185.048 14.2346C184.731 13.6563 184.572 12.9817 184.572 12.2108C184.572 11.1677 184.81 10.2097 185.286 9.33665C185.763 8.4523 186.426 7.75503 187.276 7.24483C188.127 6.72329 189.073 6.46252 190.116 6.46252C190.887 6.46252 191.568 6.62125 192.157 6.93871C192.747 7.24483 193.206 7.687 193.535 8.26523C193.863 8.83211 194.028 9.50104 194.028 10.272C194.028 11.3264 193.784 12.2901 193.297 13.1631C192.809 14.0361 192.14 14.7334 191.29 15.255C190.451 15.7652 189.51 16.0203 188.467 16.0203ZM188.603 15.0169C189.408 15.0169 190.128 14.8014 190.763 14.3706C191.409 13.9398 191.908 13.3672 192.259 12.6529C192.622 11.9387 192.803 11.1677 192.803 10.34C192.803 9.41034 192.531 8.70173 191.987 8.21421C191.454 7.72668 190.774 7.48292 189.946 7.48292C189.141 7.48292 188.421 7.69834 187.786 8.12917C187.163 8.56001 186.675 9.13257 186.324 9.84684C185.972 10.5611 185.797 11.3321 185.797 12.1597C185.797 13.0781 186.063 13.7867 186.596 14.2856C187.129 14.7731 187.798 15.0169 188.603 15.0169Z" fill="#F3F3F3"/>
<path d="M201.334 6.42851C202.286 6.42851 203.046 6.68928 203.613 7.21082C204.191 7.72102 204.48 8.46931 204.48 9.45569C204.48 9.8185 204.452 10.1473 204.395 10.4421L203.426 15.8842H202.252L203.188 10.5781C203.233 10.3174 203.256 10.0396 203.256 9.7448C203.256 8.99651 203.052 8.42962 202.643 8.04414C202.235 7.65866 201.663 7.46591 200.926 7.46591C200.03 7.46591 199.265 7.74936 198.63 8.31625C197.995 8.88314 197.581 9.71646 197.388 10.8162V10.7652L196.487 15.8842H195.297L196.929 6.59858H198.12L197.831 8.1972C198.227 7.63031 198.732 7.19381 199.344 6.88769C199.956 6.58157 200.62 6.42851 201.334 6.42851Z" fill="#F3F3F3"/>
<path d="M206.331 11.2244C206.501 10.272 206.841 9.43869 207.351 8.72441C207.861 7.99879 208.485 7.44324 209.222 7.05776C209.97 6.66093 210.769 6.46252 211.62 6.46252C212.504 6.46252 213.23 6.6666 213.797 7.07476C214.363 7.48292 214.732 8.00446 214.902 8.63937L215.259 6.59858H216.45L214.817 15.8842H213.627L213.984 13.8264C213.598 14.4613 213.043 14.9885 212.317 15.408C211.603 15.8162 210.803 16.0203 209.919 16.0203C209.182 16.0203 208.536 15.8672 207.98 15.5611C207.425 15.255 206.994 14.8241 206.688 14.2686C206.382 13.7017 206.229 13.0384 206.229 12.2788C206.229 11.95 206.263 11.5985 206.331 11.2244ZM214.443 11.2414C214.5 10.9239 214.528 10.6405 214.528 10.3911C214.528 9.50671 214.261 8.80377 213.729 8.28223C213.196 7.7607 212.504 7.49993 211.654 7.49993C210.996 7.49993 210.378 7.64732 209.8 7.9421C209.233 8.23688 208.751 8.66772 208.354 9.23461C207.958 9.79016 207.691 10.4534 207.555 11.2244C207.498 11.5645 207.47 11.8536 207.47 12.0917C207.47 12.9874 207.731 13.696 208.252 14.2176C208.785 14.7278 209.477 14.9829 210.327 14.9829C210.962 14.9829 211.569 14.8298 212.147 14.5237C212.737 14.2176 213.23 13.781 213.627 13.2142C214.035 12.6473 214.307 11.9897 214.443 11.2414Z" fill="#F3F3F3"/>
<path d="M220.953 3.29929L218.725 15.8842H217.535L219.763 3.29929H220.953Z" fill="#F3F3F3"/>
<path d="M220.401 19.0474L220.418 18.9284C222.107 17.4431 223.428 15.6348 224.38 13.5033C225.344 11.3718 225.826 9.19492 225.826 6.97272C225.826 5.6462 225.633 4.39905 225.248 3.23126C224.873 2.05213 224.306 1.01473 223.547 0.119046L223.564 0H224.822C225.525 0.816318 226.064 1.8027 226.438 2.95915C226.812 4.11561 226.999 5.38544 226.999 6.76864C226.999 8.27656 226.784 9.80149 226.353 11.3434C225.922 12.874 225.299 14.3083 224.482 15.6461C223.677 16.984 222.731 18.1177 221.642 19.0474H220.401Z" fill="#F3F3F3"/>
</svg>
