<svg width="16" height="10" viewBox="0 0 16 10" fill="none" xmlns="http://www.w3.org/2000/svg">
<path d="M15.6834 1.81523L8.59103 8.92869C8.5066 9.01312 8.41513 9.07307 8.31662 9.10853C8.21812 9.14399 8.11258 9.16144 8 9.16088C7.88742 9.16088 7.78188 9.14314 7.68338 9.10768C7.58487 9.07222 7.4934 9.01256 7.40897 8.92869L0.295514 1.81523C0.0985044 1.61822 -3.40465e-07 1.37196 -3.53382e-07 1.07644C-3.663e-07 0.780929 0.105541 0.527631 0.316622 0.316548C0.527704 0.105467 0.773966 -7.44204e-05 1.05541 -7.44327e-05C1.33685 -7.4445e-05 1.58311 0.105467 1.79419 0.316548L8 6.52235L14.2058 0.316548C14.4028 0.119539 14.6457 0.0210326 14.9345 0.0210326C15.2232 0.0210326 15.4729 0.126574 15.6834 0.337655C15.8945 0.548738 16 0.794999 16 1.07644C16 1.35788 15.8945 1.60415 15.6834 1.81523Z" fill="black"/>
</svg>
