<svg width="33" height="35" viewBox="0 0 33 35" fill="none" xmlns="http://www.w3.org/2000/svg">
<path d="M16.4794 17.5843C21.0112 17.5843 24.6816 13.5768 24.6816 8.67041C24.6816 3.83895 21.0112 0 16.4794 0C11.9663 0 8.25843 3.89513 8.27715 8.70787C8.29588 13.5955 11.9476 17.5843 16.4794 17.5843ZM16.4794 14.3071C13.8951 14.3071 11.7041 11.8539 11.7041 8.70787C11.6854 5.6367 13.8764 3.27715 16.4794 3.27715C19.1011 3.27715 21.2547 5.59925 21.2547 8.67041C21.2547 11.8165 19.0824 14.3071 16.4794 14.3071ZM4.79401 35H28.1461C31.3858 35 32.9401 33.97 32.9401 31.7603C32.9401 26.6105 26.5168 19.7566 16.4794 19.7566C6.44195 19.7566 0 26.6105 0 31.7603C0 33.97 1.55431 35 4.79401 35ZM4.21348 31.7228C3.76404 31.7228 3.5955 31.573 3.5955 31.236C3.5955 28.3708 8.22097 23.0337 16.4794 23.0337C24.7191 23.0337 29.3446 28.3708 29.3446 31.236C29.3446 31.573 29.176 31.7228 28.7266 31.7228H4.21348Z" fill="#ED1C24"/>
</svg>
