<svg width="10" height="10" viewBox="0 0 10 10" fill="none" xmlns="http://www.w3.org/2000/svg">
<path d="M4.5 5.5V7C4.5 7.14167 4.548 7.2605 4.644 7.3565C4.74 7.4525 4.85867 7.50033 5 7.5C5.14167 7.5 5.2605 7.452 5.3565 7.356C5.4525 7.26 5.50033 7.14133 5.5 7V5.5H7C7.14167 5.5 7.2605 5.452 7.3565 5.356C7.4525 5.26 7.50033 5.14133 7.5 5C7.5 4.85833 7.452 4.7395 7.356 4.6435C7.26 4.5475 7.14133 4.49967 7 4.5H5.5V3C5.5 2.85833 5.452 2.7395 5.356 2.6435C5.26 2.5475 5.14133 2.49967 5 2.5C4.85833 2.5 4.7395 2.548 4.6435 2.644C4.5475 2.74 4.49967 2.85867 4.5 3V4.5H3C2.85833 4.5 2.7395 4.548 2.6435 4.644C2.5475 4.74 2.49967 4.85867 2.5 5C2.5 5.14167 2.548 5.2605 2.644 5.3565C2.74 5.4525 2.85867 5.50033 3 5.5H4.5ZM5 10C4.30833 10 3.65833 9.86867 3.05 9.606C2.44167 9.34333 1.9125 8.98717 1.4625 8.5375C1.0125 8.0875 0.656333 7.55833 0.394 6.95C0.131667 6.34167 0.000333333 5.69167 0 5C0 4.30833 0.131333 3.65833 0.394 3.05C0.656667 2.44167 1.01283 1.9125 1.4625 1.4625C1.9125 1.0125 2.44167 0.656333 3.05 0.394C3.65833 0.131667 4.30833 0.000333333 5 0C5.69167 0 6.34167 0.131333 6.95 0.394C7.55833 0.656667 8.0875 1.01283 8.5375 1.4625C8.9875 1.9125 9.34383 2.44167 9.6065 3.05C9.86917 3.65833 10.0003 4.30833 10 5C10 5.69167 9.86867 6.34167 9.606 6.95C9.34333 7.55833 8.98717 8.0875 8.5375 8.5375C8.0875 8.9875 7.55833 9.34383 6.95 9.6065C6.34167 9.86917 5.69167 10.0003 5 10Z" fill="#111111"/>
</svg>
